<?xml version="1.0" encoding="utf-8"?>
<!-- Generator: Adobe Illustrator 19.1.0, SVG Export Plug-In . SVG Version: 6.00 Build 0)  -->
<svg version="1.1" id="Capa_1" xmlns="http://www.w3.org/2000/svg" xmlns:xlink="http://www.w3.org/1999/xlink" x="0px" y="0px"
	 viewBox="-18 110.3 573.8 573.8" style="enable-background:new -18 110.3 573.8 573.8;" xml:space="preserve">
<g>
	<g>
		<circle cx="190.5" cy="177.2" r="9.6"/>
		<path d="M517.5,255.6l-23-23c-15.3-15.3-38.3-15.3-53.6,0l-68.9,68.9v-57.4c0-21-17.2-38.3-38.3-38.3h-19.1
			c0-21-17.2-38.3-38.3-38.3h-19.1c0-32.5-26.8-57.4-57.4-57.4h-19.1c-32.5,0-57.4,24.9-57.4,57.4h-19.1c-21,0-38.3,17.2-38.3,38.3
			H47c-21,0-38.3,17.2-38.3,38.3v401.6C8.8,666.8,26,684,47,684h286.9c21,0,38.3-17.2,38.3-38.3V454.5l145.4-145.4
			C532.8,293.9,532.8,270.9,517.5,255.6z M85.3,205.9c0-11.5,7.7-19.1,19.1-19.1h38.2v-19.1c0-21,17.2-38.3,38.3-38.3H200
			c21,0,38.3,17.2,38.3,38.3v19.1h38.3c11.5,0,19.1,7.6,19.1,19.1V225c0,11.5-7.6,19.1-19.1,19.1H104.4c-11.5,0-19.1-7.6-19.1-19.1
			V205.9z M353,645.8c0,11.5-7.6,19.1-19.1,19.1H47c-9.6,0-19.1-7.7-19.1-19.1V244.1c0-11.5,7.7-19.1,19.1-19.1h19.1
			c0,21,17.2,38.3,38.3,38.3h172.1c21,0,38.3-17.2,38.3-38.3h19.1c9.6,0,19.1,7.6,19.1,19.1v76.5L161.8,511.9l-19.1,95.6l95.6-19.1
			L353,473.6V645.8z M179,523.3l47.8,47.8l-59.3,11.5L179,523.3z M242.1,557.8L192.4,508l216.1-216.1l49.7,49.7L242.1,557.8z
			 M504.1,295.8l-32.5,32.5l-49.7-49.7l32.5-32.5c7.6-7.6,19.1-7.6,26.8,0l22.9,22.9C511.8,276.6,511.8,288.1,504.1,295.8z"/>
	</g>
</g>
</svg>
