<?xml version="1.0" encoding="utf-8"?>
<!-- Generator: Adobe Illustrator 19.1.0, SVG Export Plug-In . SVG Version: 6.00 Build 0)  -->
<svg version="1.1" id="Layer_1" xmlns="http://www.w3.org/2000/svg" xmlns:xlink="http://www.w3.org/1999/xlink" x="0px" y="0px"
	 viewBox="434 -216.8 530 579.2" style="enable-background:new 434 -216.8 530 579.2;" xml:space="preserve">
<style type="text/css">
	.st0{fill:#FFFFFF;stroke:#000000;stroke-miterlimit:10;}
	.st1{fill:#F3EB41;}
	.st2{fill:#FFFFFF;}
	.st3{fill:#FFD2FA;}
	.st4{fill:#F0F0F0;}
</style>
<g id="Layer_3">
	<polygon class="st0" points="504,-107.6 462,-107.6 448,-86.6 448,325.4 469,353.4 776,353.4 795,332.4 795,148.4 795,-85.6 
		770,-107.6 736,-107.6 731,-81.2 698.8,-65.6 552,-69.6 510,-77.5 	"/>
</g>
<g id="Layer_4">
	<path class="st0" d="M607,189.4"/>
</g>
<g id="Layer_2">
	<polygon class="st1" points="610.9,185.4 671,252.2 902,20.4 840,-37.3 	"/>
	<polygon class="st2" points="583,275.4 607,189.4 671,252.2 	"/>
	<polygon class="st3" points="844,-45.6 908,16.4 948,-29.7 939.9,-60.6 907,-86.6 884,-91.6 	"/>
	<path class="st4" d="M506.2-96.6v-38.2l28.8-9.6h37.6l-7.6-27.2c0,0-2.7-11.6,7.6-10c10.3,1.6,24.9-16,24.9-16H637l34,14l5,29.6
		v9.6h36l18,9.6l6,27.2l-5,26.4l-27.6,13.4H521L506.2-96.6z"/>
</g>
<g id="Capa_1">
	<g>
		<g>
			<circle cx="620.5" cy="-144.4" r="9.6"/>
			<path d="M947.5-66l-23-23c-15.3-15.3-38.3-15.3-53.6,0L802-20.1v-57.4c0-21-17.2-38.3-38.3-38.3h-19.1c0-21-17.2-38.3-38.3-38.3
				h-19.1c0-32.5-26.8-57.4-57.4-57.4h-19.1c-32.5,0-57.4,24.9-57.4,57.4h-19.1c-21,0-38.3,17.2-38.3,38.3H477
				c-21,0-38.3,17.2-38.3,38.3v401.6c0.1,21.1,17.3,38.3,38.3,38.3h286.9c21,0,38.3-17.2,38.3-38.3V132.9L947.6-12.5
				C962.8-27.7,962.8-50.7,947.5-66z M515.3-115.7c0-11.5,7.7-19.1,19.1-19.1h38.2v-19.1c0-21,17.2-38.3,38.3-38.3H630
				c21,0,38.3,17.2,38.3,38.3v19.1h38.3c11.5,0,19.1,7.6,19.1,19.1v19.1c0,11.5-7.6,19.1-19.1,19.1H534.4
				c-11.5,0-19.1-7.6-19.1-19.1V-115.7z M783,324.2c0,11.5-7.6,19.1-19.1,19.1H477c-9.6,0-19.1-7.7-19.1-19.1V-77.5
				c0-11.5,7.7-19.1,19.1-19.1h19.1c0,21,17.2,38.3,38.3,38.3h172.1c21,0,38.3-17.2,38.3-38.3h19.1c9.6,0,19.1,7.6,19.1,19.1V-1
				L591.8,190.3l-19.1,95.6l95.6-19.1L783,152V324.2z M609,201.7l47.8,47.8L597.5,261L609,201.7z M672.1,236.2l-49.7-49.8
				L838.5-29.7L888.2,20L672.1,236.2z M934.1-25.8L901.6,6.7L851.9-43l32.5-32.5c7.6-7.6,19.1-7.6,26.8,0l22.9,22.9
				C941.8-45,941.8-33.5,934.1-25.8z"/>
		</g>
	</g>
</g>
</svg>
