<?xml version="1.0" encoding="utf-8"?>
<!-- Generator: Adobe Illustrator 19.1.0, SVG Export Plug-In . SVG Version: 6.00 Build 0)  -->
<svg version="1.1" id="Layer_1" xmlns="http://www.w3.org/2000/svg" xmlns:xlink="http://www.w3.org/1999/xlink" x="0px" y="0px"
	 viewBox="-293 385 24 24" style="enable-background:new -293 385 24 24;" xml:space="preserve">
<style type="text/css">
	.st0{display:none;}
	.st1{display:inline;}
	.st2{fill:none;stroke:#000000;stroke-linecap:round;stroke-linejoin:round;stroke-miterlimit:10;}
</style>
<g id="Filled_Version" class="st0">
	<g class="st1">
		<path d="M-292.8,408.2c0,0.2,0,0.3,0.1,0.5c0.1,0.1,0.3,0.2,0.5,0.1l6.5-1.5c0,0,0.1,0,0.1,0l-5.6-5.6c0,0,0,0.1,0,0.1
			L-292.8,408.2z"/>
		<rect x="-274.6" y="386.1" transform="matrix(-0.7072 0.7071 -0.7071 -0.7072 -192.1576 859.8843)" width="1" height="8"/>
		<rect x="-290.3" y="393.5" transform="matrix(-0.7071 0.7071 -0.7071 -0.7071 -199.4443 877.5516)" width="17.7" height="8"/>
		<path d="M-270.3,391.9l0.4-0.4c1-1,1-2.6,0-3.5l-2.1-2.1c-0.5-0.5-1.1-0.7-1.8-0.7c-0.7,0-1.3,0.3-1.8,0.7l-0.4,0.4L-270.3,391.9z
			"/>
	</g>
</g>
<g id="Outline_Version">
	<g>
		<path class="st2" d="M-285.7,406.7l-6.5,1.5l1.5-6.5l15.6-15.6c0.8-0.8,2-0.8,2.8,0l2.1,2.1c0.8,0.8,0.8,2,0,2.8L-285.7,406.7z"/>
		<line class="st2" x1="-270.8" y1="391.8" x2="-275.7" y2="386.8"/>
		<line class="st2" x1="-272.2" y1="393.2" x2="-277.2" y2="388.2"/>
		<line class="st2" x1="-285.4" y1="406.4" x2="-290.4" y2="401.5"/>
	</g>
</g>
</svg>
