<?xml version="1.0" encoding="iso-8859-1"?>
<!-- Generator: Adobe Illustrator 19.1.0, SVG Export Plug-In . SVG Version: 6.00 Build 0)  -->
<svg version="1.1" xmlns="http://www.w3.org/2000/svg" xmlns:xlink="http://www.w3.org/1999/xlink" x="0px" y="0px"
	 viewBox="0 0 29.083 25.333" style="enable-background:new 0 0 29.083 25.333;" xml:space="preserve">
<g id="Layer_2">
	<path style="fill:#FFFFFF;" d="M3.25,16.417l0.405-7.108L5.25,8.083l3,0.417v-6h10l3,3v3.417L24.917,8.5l1.333,2l-0.333,8h-3.333
		l-1.333,0.25v4.75c0,0-13,1.083-13,0s0-5,0-5l-3.503-0.073L3.25,16.417z"/>
</g>
<g id="Layer_1">
	<g>
		<path style="fill:none;stroke:#696F8E;stroke-width:1.5;stroke-linecap:round;stroke-linejoin:round;stroke-miterlimit:10;" d="
			M8.25,18.5h-3c-1.1,0-2-0.9-2-2v-6c0-1.1,0.9-2,2-2h19c1.101,0,2,0.9,2,2v6c0,1.1-0.899,2-2,2h-3"/>
		
			<polyline style="fill:none;stroke:#696F8E;stroke-width:1.5;stroke-linecap:round;stroke-linejoin:round;stroke-miterlimit:10;" points="
			8.25,6.5 8.25,2.5 18.25,2.5 21.25,5.5 21.25,6.5 		"/>
		
			<rect x="8.25" y="15.5" style="fill:none;stroke:#696F8E;stroke-width:1.5;stroke-linecap:round;stroke-linejoin:round;stroke-miterlimit:10;" width="13" height="8"/>
		
			<circle style="fill:none;stroke:#696F8E;stroke-width:1.5;stroke-linecap:round;stroke-linejoin:round;stroke-miterlimit:10;" cx="6.25" cy="11.5" r="1"/>
		
			<line style="fill:none;stroke:#696F8E;stroke-width:1.5;stroke-linecap:round;stroke-linejoin:round;stroke-miterlimit:10;" x1="10.25" y1="17.5" x2="19.25" y2="17.5"/>
		
			<line style="fill:none;stroke:#696F8E;stroke-width:1.5;stroke-linecap:round;stroke-linejoin:round;stroke-miterlimit:10;" x1="10.25" y1="19.5" x2="19.25" y2="19.5"/>
		
			<line style="fill:none;stroke:#696F8E;stroke-width:1.5;stroke-linecap:round;stroke-linejoin:round;stroke-miterlimit:10;" x1="10.25" y1="21.5" x2="19.25" y2="21.5"/>
		
			<polyline style="fill:none;stroke:#696F8E;stroke-width:1.5;stroke-linecap:round;stroke-linejoin:round;stroke-miterlimit:10;" points="
			18.25,2.5 18.25,5.5 21.25,5.5 		"/>
	</g>
	<path style="fill:none;stroke:#696F8E;stroke-width:1.5;stroke-linecap:round;stroke-linejoin:round;stroke-miterlimit:10;" d="
		M8.25,9.583"/>
</g>
</svg>
