<?xml version="1.0" encoding="utf-8"?>
<!-- Generator: Adobe Illustrator 19.1.0, SVG Export Plug-In . SVG Version: 6.00 Build 0)  -->
<svg version="1.1" id="Layer_1" xmlns="http://www.w3.org/2000/svg" xmlns:xlink="http://www.w3.org/1999/xlink" x="0px" y="0px"
	 viewBox="-35 483.8 500 500" style="enable-background:new -35 483.8 500 500;" xml:space="preserve">
<style type="text/css">
	.st0{fill:none;stroke:#000000;stroke-width:21.3039;stroke-linecap:round;stroke-linejoin:round;stroke-miterlimit:10;}
</style>
<path class="st0" d="M337.7,887.6c19.7-27.3,31.5-61.1,31.5-97.8c0-90-70.1-163-156.6-163c-86.5,0-156.6,73-156.6,163
	c0,36.7,11.8,70.6,31.5,97.8H337.7z M56.1,789.8c-34.6,0-62.6-29.2-62.6-65.2V692c0-12-9.3-21.7-20.9-21.7 M364.9,827.7
	c7.7,3.6,16.3,5.6,25.3,5.6c34.6,0,62.6-29.2,62.6-65.2c0-36-28-65.2-62.6-65.2c-14.3,0-27.3,5-37.9,13.4 M87.4,692h250.5
	 M212.7,561.5c17.3,0,31.3,14.6,31.3,32.6c0,18-14,32.6-31.3,32.6s-31.3-14.6-31.3-32.6C181.4,576.1,195.4,561.5,212.7,561.5z"/>
</svg>
