<?xml version="1.0" encoding="utf-8"?>
<!-- Generator: Adobe Illustrator 18.1.1, SVG Export Plug-In . SVG Version: 6.00 Build 0)  -->
<svg version="1.1" id="Capa_1" xmlns="http://www.w3.org/2000/svg" xmlns:xlink="http://www.w3.org/1999/xlink" x="0px" y="0px"
	 viewBox="-113 204 385 385" enable-background="new -113 204 385 385" xml:space="preserve">
<g>
	<path d="M-113,348.8c0,38.7,15.1,75,42.4,102.4c27.3,27.3,63.7,42.4,102.4,42.4c26.4,0,51.7-7,73.8-20.2l105.4,105.4
		c6.6,6.6,15.4,10.3,24.8,10.3s18.1-3.6,24.8-10.3l1.3-1.3c6.6-6.6,10.3-15.4,10.3-24.8c0-9.3-3.6-18.1-10.3-24.8L156.4,422.6
		c13.1-22.1,20.2-47.4,20.2-73.8c0-38.7-15.1-75-42.4-102.4C106.8,219.1,70.4,204,31.8,204c0,0,0,0,0,0c-38.7,0-75,15.1-102.4,42.4
		C-97.9,273.7-113,310.1-113,348.8z M126.1,458.6c2.7-2.4,5.4-4.8,8-7.4c2.6-2.6,5.1-5.3,7.4-8l102.5,102.5c1.9,1.9,2.9,4.4,2.9,7.1
		c0,2.7-1,5.2-2.9,7.1l-1.3,1.3c-1.9,1.9-4.4,2.9-7.1,2.9c-2.7,0-5.2-1-7.1-2.9L126.1,458.6z M-88,348.8c0-32,12.5-62.1,35.1-84.7
		S-0.2,229,31.8,229c32,0,62.1,12.5,84.7,35.1s35.1,52.7,35.1,84.7c0,32-12.5,62.1-35.1,84.7c-22.6,22.6-52.7,35.1-84.7,35.1
		c-32,0-62.1-12.5-84.7-35.1C-75.5,410.8-88,380.8-88,348.8z"/>
</g>
</svg>
