<?xml version="1.0" encoding="utf-8"?>
<!-- Generator: Adobe Illustrator 18.1.1, SVG Export Plug-In . SVG Version: 6.00 Build 0)  -->
<svg version="1.1" id="Capa_1" xmlns="http://www.w3.org/2000/svg" xmlns:xlink="http://www.w3.org/1999/xlink" x="0px" y="0px"
	 viewBox="-298.2 381 51.3 79.2" enable-background="new -298.2 381 51.3 79.2" xml:space="preserve">
<g>
	<g id="User">
		<g>
			<path d="M-273,403c5,0,9-4.9,9-11s-4-11-9-11c-2.4,0-4.7,1.2-6.4,3.3c-1.7,2.1-2.6,4.8-2.6,7.7C-282,398.1-278,403-273,403z
				 M-273,383c3.9,0,7,4,7,9c0,5-3.1,9-7,9c-3.9,0-7-4-7-9C-280,387-276.9,383-273,383z M-266,401c-0.6,0-1,0.4-1,1s0.4,1,1,1
				c3.9,0,7,3.1,7,7c0,0.6-0.4,1-1,1h-26c-0.6,0-1-0.4-1-1c0-3.9,3.1-7,7-7c0.6,0,1-0.4,1-1s-0.4-1-1-1c-5,0-9,4-9,9
				c0,1.7,1.3,3,3,3h26c1.7,0,3-1.3,3-3C-257,405-261,401-266,401z"/>
		</g>
	</g>
</g>
<path fill="none" stroke="#000000" stroke-width="2" stroke-miterlimit="10" d="M-254.2,419.6h-37.7c-1,0-1.8-0.8-1.8-1.8v-4.1
	c0-1,0.8-1.8,1.8-1.8h37.7c1,0,1.8,0.8,1.8,1.8v4.1C-252.4,418.8-253.2,419.6-254.2,419.6z"/>
<path fill="none" stroke="#000000" stroke-width="2" stroke-miterlimit="10" d="M-264.3,458.4h-16.5c-2,0-3.7-1.6-3.7-3.7l-4.5-31.5
	c0-2,1.6-3.7,3.7-3.7h24.7c2,0,3.7,1.6,3.7,3.7l-3.7,31.5C-260.7,456.8-262.3,458.4-264.3,458.4z"/>
</svg>
