<?xml version="1.0" encoding="utf-8"?>
<!-- Generator: Adobe Illustrator 19.1.0, SVG Export Plug-In . SVG Version: 6.00 Build 0)  -->
<svg version="1.1" id="Layer_1" xmlns="http://www.w3.org/2000/svg" xmlns:xlink="http://www.w3.org/1999/xlink" x="0px" y="0px"
	 viewBox="0 0 50 50" enable-background="new 0 0 50 50" xml:space="preserve">
<line fill="none" stroke="#A54F9E" stroke-miterlimit="10" x1="1.1" y1="0.8" x2="51.9" y2="32.1"/>
<line fill="none" stroke="#A54F9E" stroke-miterlimit="10" x1="-0.6" y1="2.5" x2="51.9" y2="40.1"/>
<line fill="none" stroke="#A54F9E" stroke-miterlimit="10" x1="-0.6" y1="8.1" x2="49" y2="42.8"/>
<line fill="none" stroke="#A54F9E" stroke-miterlimit="10" x1="-2.1" y1="14.2" x2="53.7" y2="48.3"/>
<line fill="none" stroke="#A54F9E" stroke-miterlimit="10" x1="-0.6" y1="21" x2="48.3" y2="50.1"/>
<line fill="none" stroke="#A54F9E" stroke-miterlimit="10" x1="8.7" y1="-0.3" x2="54.3" y2="27.4"/>
<line fill="none" stroke="#A54F9E" stroke-miterlimit="10" x1="19.9" y1="-0.3" x2="55.9" y2="20"/>
<line fill="none" stroke="#A54F9E" stroke-miterlimit="10" x1="27.9" y1="-0.3" x2="51.9" y2="12.2"/>
<line fill="none" stroke="#A54F9E" stroke-miterlimit="10" x1="38.7" y1="0" x2="51.1" y2="9.8"/>
<line fill="none" stroke="#A54F9E" stroke-miterlimit="10" x1="-1.1" y1="28" x2="37" y2="50.8"/>
<line fill="none" stroke="#A54F9E" stroke-miterlimit="10" x1="54.3" y1="7.5" x2="15" y2="50.1"/>
<line fill="none" stroke="#A54F9E" stroke-miterlimit="10" x1="55.2" y1="-0.8" x2="6.2" y2="44"/>
<line fill="none" stroke="#A54F9E" stroke-miterlimit="10" x1="44.5" y1="1.2" x2="-0.6" y2="40.1"/>
<line fill="none" stroke="#A54F9E" stroke-miterlimit="10" x1="33.7" y1="0" x2="-3" y2="32.7"/>
<line fill="none" stroke="#A54F9E" stroke-miterlimit="10" x1="22.9" y1="-0.8" x2="-4.8" y2="20.6"/>
<line fill="none" stroke="#A54F9E" stroke-miterlimit="10" x1="15.4" y1="-0.3" x2="-3" y2="7.5"/>
<line fill="none" stroke="#A54F9E" stroke-miterlimit="10" x1="-0.6" y1="34.6" x2="19.1" y2="51.2"/>
<line fill="none" stroke="#A54F9E" stroke-miterlimit="10" x1="-3.6" y1="42.1" x2="11.2" y2="50.8"/>
<line fill="none" stroke="#A54F9E" stroke-miterlimit="10" x1="-0.6" y1="53.1" x2="10.2" y2="40.1"/>
</svg>
