<?xml version="1.0" encoding="utf-8"?>
<!-- Generator: Adobe Illustrator 19.1.0, SVG Export Plug-In . SVG Version: 6.00 Build 0)  -->
<svg version="1.1" id="Layer_1" xmlns="http://www.w3.org/2000/svg" xmlns:xlink="http://www.w3.org/1999/xlink" x="0px" y="0px"
	 viewBox="-12 19 24 24" style="enable-background:new -12 19 24 24;" xml:space="preserve">
<style type="text/css">
	.st0{fill:#FFFFFF;}
</style>
<polygon class="st0" points="-7,23 -7,21.5 -7,20 -5,20 -5,21.5 -5,23 "/>
<polygon class="st0" points="7,23 7,21.5 7,20 5,20 5,21.5 5,23 "/>
<rect x="-5" y="32.5" class="st0" width="4" height="4"/>
<path class="st0" d="M7.5,24h-3C4.2,24,4,23.8,4,23.5V22h-8v1.5c0,0.3-0.2,0.5-0.5,0.5h-3C-7.8,24-8,23.8-8,23.5V22h-3v4h22v-4H8
	v1.5C8,23.8,7.8,24,7.5,24z"/>
<g>
	<rect x="-11" y="27" class="st0" width="22" height="15"/>
	<path class="st0" d="M-10,32c0,0.3,0.2,0.5,0.5,0.5H-6v4h-3.5c-0.3,0-0.5,0.2-0.5,0.5s0.2,0.5,0.5,0.5H-6v3c0,0.3,0.2,0.5,0.5,0.5
		S-5,40.8-5,40.5v-3h4v3c0,0.3,0.2,0.5,0.5,0.5S0,40.8,0,40.5v-3h4v3C4,40.8,4.2,41,4.5,41S5,40.8,5,40.5v-3h4.5
		c0.3,0,0.5-0.2,0.5-0.5s-0.2-0.5-0.5-0.5H5v-4h4.5c0.3,0,0.5-0.2,0.5-0.5s-0.2-0.5-0.5-0.5H5v-3C5,28.2,4.8,28,4.5,28
		S4,28.2,4,28.5v3H0v-3C0,28.2-0.2,28-0.5,28S-1,28.2-1,28.5v3h-4v-3c0-0.3-0.2-0.5-0.5-0.5S-6,28.2-6,28.5v3h-3.5
		C-9.8,31.5-10,31.7-10,32z"/>
</g>
<rect y="32.5" class="st0" width="4" height="4"/>
<path class="st0" d="M11.5,27H11v15h-22V27h-0.5c-0.3,0-0.5-0.2-0.5-0.5v16c0,0.3,0.2,0.5,0.5,0.5h23c0.3,0,0.5-0.2,0.5-0.5v-16
	C12,26.8,11.8,27,11.5,27z"/>
<path class="st0" d="M11.5,21H8v1h3v4h0.5c0.3,0,0.5,0.2,0.5,0.5v-5C12,21.2,11.8,21,11.5,21z"/>
<path class="st0" d="M-11.5,26h0.5v-4h3v-1h-3.5c-0.3,0-0.5,0.2-0.5,0.5v5C-12,26.2-11.8,26-11.5,26z"/>
<path class="st0" d="M-7.5,24h3c0.3,0,0.5-0.2,0.5-0.5V22h-0.5C-4.8,22-5,21.8-5,21.5V23h-2v-1.5c0,0.3-0.2,0.5-0.5,0.5H-8v1.5
	C-8,23.8-7.8,24-7.5,24z"/>
<path class="st0" d="M-7,21.5V20h2v1.5c0-0.3,0.2-0.5,0.5-0.5H-4v-1.5c0-0.3-0.2-0.5-0.5-0.5h-3C-7.8,19-8,19.2-8,19.5V21h0.5
	C-7.2,21-7,21.2-7,21.5z"/>
<path class="st0" d="M-7.5,22c0.3,0,0.5-0.2,0.5-0.5S-7.2,21-7.5,21H-8v1H-7.5z"/>
<path class="st0" d="M5,21.5V20h2v1.5C7,21.2,7.2,21,7.5,21H8v-1.5C8,19.2,7.8,19,7.5,19h-3C4.2,19,4,19.2,4,19.5V21h0.5
	C4.8,21,5,21.2,5,21.5z"/>
<path class="st0" d="M7,21.5V23H5v-1.5C5,21.8,4.8,22,4.5,22H4v1.5C4,23.8,4.2,24,4.5,24h3C7.8,24,8,23.8,8,23.5V22H7.5
	C7.2,22,7,21.8,7,21.5z"/>
<path class="st0" d="M7,21.5C7,21.8,7.2,22,7.5,22H8v-1H7.5C7.2,21,7,21.2,7,21.5z"/>
<rect x="-4" y="21" class="st0" width="8" height="1"/>
<path class="st0" d="M-5,21.5c0,0.3,0.2,0.5,0.5,0.5H-4v-1h-0.5C-4.8,21-5,21.2-5,21.5z"/>
<path class="st0" d="M4.5,22C4.8,22,5,21.8,5,21.5S4.8,21,4.5,21H4v1H4.5z"/>
<rect x="-11" y="26" class="st0" width="22" height="1"/>
<path class="st0" d="M11.5,26H11v1h0.5c0.3,0,0.5-0.2,0.5-0.5S11.8,26,11.5,26z"/>
<path class="st0" d="M-11.5,27h0.5v-1h-0.5c-0.3,0-0.5,0.2-0.5,0.5S-11.8,27-11.5,27z"/>
<path class="st0" d="M-6,40.5c0,0.3,0.2,0.5,0.5,0.5S-5,40.8-5,40.5v-3h-1V40.5z"/>
<rect x="-6" y="32.5" class="st0" width="1" height="4"/>
<path class="st0" d="M-5,28.5c0-0.3-0.2-0.5-0.5-0.5S-6,28.2-6,28.5v3h1V28.5z"/>
<rect x="-1" y="32.5" class="st0" width="1" height="4"/>
<path class="st0" d="M-1,40.5c0,0.3,0.2,0.5,0.5,0.5S0,40.8,0,40.5v-3h-1V40.5z"/>
<path class="st0" d="M0,28.5C0,28.2-0.2,28-0.5,28S-1,28.2-1,28.5v3h1V28.5z"/>
<rect x="4" y="32.5" class="st0" width="1" height="4"/>
<path class="st0" d="M4,40.5C4,40.8,4.2,41,4.5,41S5,40.8,5,40.5v-3H4V40.5z"/>
<path class="st0" d="M5,28.5C5,28.2,4.8,28,4.5,28S4,28.2,4,28.5v3h1V28.5z"/>
<path class="st0" d="M-9.5,32.5H-6v-1h-3.5c-0.3,0-0.5,0.2-0.5,0.5S-9.8,32.5-9.5,32.5z"/>
<rect x="-5" y="31.5" class="st0" width="4" height="1"/>
<rect y="31.5" class="st0" width="4" height="1"/>
<path class="st0" d="M9.5,32.5c0.3,0,0.5-0.2,0.5-0.5s-0.2-0.5-0.5-0.5H5v1H9.5z"/>
<rect x="-6" y="31.5" class="st0" width="1" height="1"/>
<rect x="-1" y="31.5" class="st0" width="1" height="1"/>
<rect x="4" y="31.5" class="st0" width="1" height="1"/>
<rect y="36.5" class="st0" width="4" height="1"/>
<path class="st0" d="M9.5,37.5c0.3,0,0.5-0.2,0.5-0.5s-0.2-0.5-0.5-0.5H5v1H9.5z"/>
<rect x="-5" y="36.5" class="st0" width="4" height="1"/>
<path class="st0" d="M-9.5,36.5c-0.3,0-0.5,0.2-0.5,0.5s0.2,0.5,0.5,0.5H-6v-1H-9.5z"/>
<rect x="-6" y="36.5" class="st0" width="1" height="1"/>
<rect x="-1" y="36.5" class="st0" width="1" height="1"/>
<rect x="4" y="36.5" class="st0" width="1" height="1"/>
</svg>
