<?xml version="1.0" encoding="utf-8"?>
<!-- Generator: Adobe Illustrator 19.1.0, SVG Export Plug-In . SVG Version: 6.00 Build 0)  -->
<svg version="1.1" id="Layer_1" xmlns="http://www.w3.org/2000/svg" xmlns:xlink="http://www.w3.org/1999/xlink" x="0px" y="0px"
	 viewBox="0 0 23.9 23.9" enable-background="new 0 0 23.9 23.9" xml:space="preserve">
<g>
	<g>
		<path fill="#010101" d="M4.1,20.2c-0.1,0-0.3,0-0.4-0.1c-0.3-0.3-0.4-0.7-0.4-1.1s0.2-0.8,0.4-1.1c0.3-0.3,0.7-0.4,1.1-0.4
			c0,0,0,0,0,0c0.4,0,0.8,0.2,1.1,0.4c0.2,0.2,0.5,0.2,0.7,0c0.2-0.2,0.2-0.5,0-0.7c-0.3-0.3-0.4-0.7-0.4-1.1s0.2-0.8,0.4-1.1
			c0.3-0.3,0.7-0.4,1.1-0.4c0,0,0,0,0,0c0.4,0,0.8,0.2,1.1,0.4c0.2,0.2,0.5,0.2,0.7,0c0.1-0.1,0.1-0.2,0.1-0.4
			c0-0.1-0.1-0.3-0.1-0.4c-0.6-0.6-0.6-1.5,0-2.1c0.3-0.3,0.7-0.4,1.1-0.4c0,0,0,0,0,0c0.4,0,0.8,0.2,1.1,0.4c0.2,0.2,0.5,0.2,0.7,0
			c0.1-0.1,0.1-0.2,0.1-0.4c0-0.1-0.1-0.3-0.1-0.4c-0.6-0.6-0.6-1.5,0-2.1c0.6-0.6,1.5-0.6,2.1,0c0.1,0.1,0.2,0.1,0.4,0.1l0,0
			c0.1,0,0.3-0.1,0.4-0.1c0.2-0.2,0.2-0.5,0-0.7c-0.6-0.6-0.6-1.5,0-2.1c0.6-0.6,1.6-0.6,2.1,0c0.2,0.2,0.5,0.2,0.7,0
			c0.1-0.1,0.1-0.2,0.1-0.4c0-0.1-0.1-0.3-0.1-0.4c-0.6-0.6-0.6-1.5,0-2.1c0.6-0.6,1.5-0.6,2.1,0c0.2,0.2,0.2,0.5,0,0.7
			s-0.5,0.2-0.7,0s-0.5-0.2-0.7,0c-0.2,0.2-0.2,0.5,0,0.7c0.3,0.3,0.4,0.7,0.4,1.1c0,0.4-0.2,0.8-0.4,1.1c-0.6,0.6-1.5,0.6-2.1,0
			c-0.2-0.2-0.5-0.2-0.7,0c-0.2,0.2-0.2,0.5,0,0.7c0.6,0.6,0.6,1.5,0,2.1c-0.3,0.3-0.7,0.4-1.1,0.4c0,0,0,0,0,0
			c-0.4,0-0.8-0.2-1.1-0.4c-0.2-0.2-0.5-0.2-0.7,0c-0.2,0.2-0.2,0.5,0,0.7c0.3,0.3,0.4,0.7,0.4,1.1c0,0.4-0.2,0.8-0.4,1.1
			c-0.6,0.6-1.5,0.6-2.1,0c-0.1-0.1-0.2-0.1-0.4-0.1l0,0c-0.1,0-0.3,0.1-0.4,0.1c-0.2,0.2-0.2,0.5,0,0.7c0.3,0.3,0.4,0.7,0.4,1.1
			c0,0.4-0.2,0.8-0.4,1.1c-0.6,0.6-1.5,0.6-2.1,0c-0.1-0.1-0.2-0.1-0.4-0.1l0,0c-0.1,0-0.3,0.1-0.4,0.1c-0.1,0.1-0.1,0.2-0.1,0.4
			s0.1,0.3,0.1,0.4c0.6,0.6,0.6,1.5,0,2.1c-0.6,0.6-1.5,0.6-2.1,0c-0.1-0.1-0.2-0.1-0.4-0.1l0,0c-0.1,0-0.3,0.1-0.4,0.1
			S4.3,18.9,4.3,19c0,0.1,0.1,0.3,0.1,0.4c0.2,0.2,0.2,0.5,0,0.7C4.4,20.2,4.3,20.2,4.1,20.2z"/>
	</g>
	<g>
		<path fill="#010101" d="M4.8,22.5c-0.9,0-1.8-0.3-2.5-1c-0.7-0.7-1-1.5-1-2.5c0-0.9,0.4-1.8,1-2.5l0,0L16.5,2.4
			c1.4-1.4,3.6-1.4,5,0c1.4,1.4,1.4,3.6,0,5L7.3,21.5C6.6,22.2,5.7,22.5,4.8,22.5z M3.1,17.2c-0.5,0.5-0.7,1.1-0.7,1.8
			c0,0.7,0.3,1.3,0.7,1.8c1,1,2.6,1,3.5,0L20.8,6.6c1-1,1-2.6,0-3.5c-1-1-2.6-1-3.5,0L3.1,17.2z"/>
	</g>
	<g>
		<path fill="#010101" d="M8.8,23.9C8.8,23.9,8.8,23.9,8.8,23.9c-1.3,0-2.5-0.6-3.5-1.6L6,21.6c0.8,0.8,1.8,1.3,2.8,1.3
			c0.9,0,1.8-0.4,2.4-1l10.6-10.6c1.1-1.1,1.7-3.2-0.3-5.2l0.7-0.7c2.3,2.4,1.8,5.1,0.3,6.7L11.9,22.5C11.1,23.4,9.9,23.9,8.8,23.9z
			"/>
	</g>
	<g>
		<path fill="#010101" d="M2,18.7c-0.1,0-0.3-0.1-0.4-0.2c-2.4-2.4-1.8-5.1-0.3-6.6L11.9,1.3c1.9-1.9,4.3-1.8,6.7,0.3
			c0.2,0.2,0.2,0.5,0,0.7c-0.2,0.2-0.5,0.2-0.7,0C16,0.7,14.1,0.6,12.6,2L2,12.6c-1.2,1.2-1.6,3.3,0.3,5.2c0.2,0.2,0.2,0.5,0,0.7
			C2.2,18.7,2.1,18.7,2,18.7z"/>
	</g>
</g>
</svg>
