<?xml version="1.0" encoding="utf-8"?>
<!-- Generator: Adobe Illustrator 19.1.0, SVG Export Plug-In . SVG Version: 6.00 Build 0)  -->
<svg version="1.1" id="Layer_1" xmlns="http://www.w3.org/2000/svg" xmlns:xlink="http://www.w3.org/1999/xlink" x="0px" y="0px"
	 viewBox="-12 19 5.7 5.8" style="enable-background:new -12 19 5.7 5.8;" xml:space="preserve">
<style type="text/css">
	.st0{fill:#FFFFFF;}
</style>
<path class="st0" d="M-6.3,20.9h-0.1v3.6h-5.3v-3.6h-0.1c-0.1,0-0.1,0-0.1-0.1v3.9c0,0.1,0,0.1,0.1,0.1h5.6c0.1,0,0.1,0,0.1-0.1
	v-3.9C-6.2,20.8-6.2,20.9-6.3,20.9z"/>
<path class="st0" d="M-6.3,19.4h-0.9v0.2h0.7v1h0.1c0.1,0,0.1,0,0.1,0.1v-1.2C-6.2,19.5-6.2,19.4-6.3,19.4z"/>
<path class="st0" d="M-11.9,20.6h0.1v-1h0.7v-0.2h-0.9c-0.1,0-0.1,0-0.1,0.1v1.2C-12,20.7-12,20.6-11.9,20.6z"/>
<path class="st0" d="M-10.9,20.1h0.7c0.1,0,0.1,0,0.1-0.1v-0.4h-0.1c-0.1,0-0.1,0-0.1-0.1v0.4h-0.5v-0.4c0,0.1,0,0.1-0.1,0.1H-11V20
	C-11,20.1-11,20.1-10.9,20.1z"/>
<path class="st0" d="M-10.8,19.5v-0.4h0.5v0.4c0-0.1,0-0.1,0.1-0.1h0.1v-0.4c0-0.1,0-0.1-0.1-0.1h-0.7c-0.1,0-0.1,0-0.1,0.1v0.4h0.1
	C-10.8,19.4-10.8,19.5-10.8,19.5z"/>
<path class="st0" d="M-10.9,19.7c0.1,0,0.1,0,0.1-0.1c0-0.1,0-0.1-0.1-0.1H-11v0.2H-10.9z"/>
<path class="st0" d="M-7.9,19.5v-0.4h0.5v0.4c0-0.1,0-0.1,0.1-0.1h0.1v-0.4c0-0.1,0-0.1-0.1-0.1H-8c-0.1,0-0.1,0-0.1,0.1v0.4H-8
	C-7.9,19.4-7.9,19.5-7.9,19.5z"/>
<path class="st0" d="M-7.4,19.5v0.4h-0.5v-0.4c0,0.1,0,0.1-0.1,0.1h-0.1V20c0,0.1,0,0.1,0.1,0.1h0.7c0.1,0,0.1,0,0.1-0.1v-0.4h-0.1
	C-7.3,19.7-7.4,19.6-7.4,19.5z"/>
<path class="st0" d="M-7.4,19.5c0,0.1,0,0.1,0.1,0.1h0.1v-0.2h-0.1C-7.3,19.4-7.4,19.5-7.4,19.5z"/>
<rect x="-10.1" y="19.4" class="st0" width="1.9" height="0.2"/>
<path class="st0" d="M-10.3,19.5c0,0.1,0,0.1,0.1,0.1h0.1v-0.2h-0.1C-10.3,19.4-10.3,19.5-10.3,19.5z"/>
<path class="st0" d="M-8,19.7c0.1,0,0.1,0,0.1-0.1c0-0.1,0-0.1-0.1-0.1h-0.1v0.2H-8z"/>
<rect x="-11.8" y="20.6" class="st0" width="5.3" height="0.2"/>
<path class="st0" d="M-6.3,20.6h-0.1v0.2h0.1c0.1,0,0.1,0,0.1-0.1S-6.2,20.6-6.3,20.6z"/>
<path class="st0" d="M-11.9,20.9h0.1v-0.2h-0.1c-0.1,0-0.1,0-0.1,0.1S-12,20.9-11.9,20.9z"/>
<path class="st0" d="M-10.5,24.2c0,0.1,0,0.1,0.1,0.1c0.1,0,0.1,0,0.1-0.1v-0.7h-0.2V24.2z"/>
<rect x="-10.5" y="22.2" class="st0" width="0.2" height="1"/>
<path class="st0" d="M-10.3,21.2c0-0.1,0-0.1-0.1-0.1c-0.1,0-0.1,0-0.1,0.1V22h0.2V21.2z"/>
<rect x="-9.3" y="22.2" class="st0" width="0.2" height="1"/>
<path class="st0" d="M-9.3,24.2c0,0.1,0,0.1,0.1,0.1c0.1,0,0.1,0,0.1-0.1v-0.7h-0.2V24.2z"/>
<path class="st0" d="M-9.1,21.2c0-0.1,0-0.1-0.1-0.1c-0.1,0-0.1,0-0.1,0.1V22h0.2V21.2z"/>
<rect x="-8.1" y="22.2" class="st0" width="0.2" height="1"/>
<path class="st0" d="M-8.1,24.2c0,0.1,0,0.1,0.1,0.1s0.1,0,0.1-0.1v-0.7h-0.2V24.2z"/>
<path class="st0" d="M-7.9,21.2c0-0.1,0-0.1-0.1-0.1s-0.1,0-0.1,0.1V22h0.2V21.2z"/>
<path class="st0" d="M-11.4,22.2h0.9V22h-0.9c-0.1,0-0.1,0-0.1,0.1S-11.5,22.2-11.4,22.2z"/>
<rect x="-10.3" y="22" class="st0" width="1" height="0.2"/>
<rect x="-9.1" y="22" class="st0" width="1" height="0.2"/>
<path class="st0" d="M-6.8,22.2c0.1,0,0.1,0,0.1-0.1s0-0.1-0.1-0.1h-1.1v0.2H-6.8z"/>
<rect x="-10.5" y="22" class="st0" width="0.2" height="0.2"/>
<rect x="-9.3" y="22" class="st0" width="0.2" height="0.2"/>
<rect x="-8.1" y="22" class="st0" width="0.2" height="0.2"/>
<rect x="-9.1" y="23.2" class="st0" width="1" height="0.2"/>
<path class="st0" d="M-6.8,23.4c0.1,0,0.1,0,0.1-0.1c0-0.1,0-0.1-0.1-0.1h-1.1v0.2H-6.8z"/>
<rect x="-10.3" y="23.2" class="st0" width="1" height="0.2"/>
<path class="st0" d="M-11.4,23.2c-0.1,0-0.1,0-0.1,0.1c0,0.1,0,0.1,0.1,0.1h0.9v-0.2H-11.4z"/>
<rect x="-10.5" y="23.2" class="st0" width="0.2" height="0.2"/>
<rect x="-9.3" y="23.2" class="st0" width="0.2" height="0.2"/>
<rect x="-8.1" y="23.2" class="st0" width="0.2" height="0.2"/>
</svg>
