<?xml version="1.0" encoding="utf-8"?>
<!-- Generator: Adobe Illustrator 18.1.1, SVG Export Plug-In . SVG Version: 6.00 Build 0)  -->
<svg version="1.1" xmlns="http://www.w3.org/2000/svg" xmlns:xlink="http://www.w3.org/1999/xlink" x="0px" y="0px"
	 viewBox="0 0 612 792" enable-background="new 0 0 612 792" xml:space="preserve">
<g id="Layer_2" display="none">
	<rect x="-29" y="45" display="inline" fill="#FF1D63" stroke="#000000" stroke-miterlimit="10" width="698" height="699"/>
</g>
<g id="Capa_1">
	<path d="M306.2,225.4c-113.2,0-205.2,92.1-205.2,205.2s92.1,205.2,205.2,205.2s205.2-92.1,205.2-205.2S419.4,225.4,306.2,225.4z
		 M306.2,614.5c-101.4,0-183.8-82.5-183.8-183.8s82.5-183.8,183.8-183.8s183.8,82.5,183.8,183.8S407.6,614.5,306.2,614.5z"/>
	<path d="M566.4,287.8l7.6-7.6c21-21,32.6-49,32.6-78.8c0-26.2-9-51-25.4-70.9l10.4-10.4c4.2-4.2,4.2-11,0-15.1
		c-4.2-4.2-11-4.2-15.1,0L566,115.4C546.1,99,521.3,90,495.2,90c-29.8,0-57.8,11.6-78.8,32.6l-7.6,7.6l71.2,71.2l-15,15
		c-41.7-31-92.8-50.1-148.1-52.3v-11.1h28.6v-23.6c0-21.7-17.6-39.3-39.3-39.3c-21.7,0-39.3,17.6-39.3,39.3v23.6h28.6v11.1
		c-55.5,2.2-106.6,21.4-148.4,52.5L132,201.4l71.2-71.2l-7.6-7.6c-21-21.1-49-32.6-78.8-32.6c-26.2,0-51,9-70.9,25.4l-10.4-10.4
		c-4.2-4.2-11-4.2-15.1,0c-4.2,4.2-4.2,11,0,15.1l10.4,10.4c-16.5,19.9-25.4,44.7-25.4,70.9c0,29.8,11.6,57.8,32.6,78.8l7.6,7.6
		l71.2-71.2l13.6,13.6c-55.7,48.9-91,120.7-91,200.5c0,87,41.9,164.5,106.6,213.2l-29,46.9l18.2,11.3l28.4-45.9
		c41.3,26.2,90.2,41.4,142.6,41.4s101.3-15.2,142.6-41.4l28.4,45.9l18.2-11.3l-29-46.9C531.1,595.1,573,517.7,573,430.7
		c0-79.9-35.4-151.8-91.2-200.7l13.4-13.4L566.4,287.8z"/>
	<path d="M288.3,129.5c0-9.9,8-17.9,17.9-17.9c9.9,0,17.9,8,17.9,17.9v2.2h-35.9L288.3,129.5L288.3,129.5z"/>
	<path fill="#FFFFFF" d="M26.8,201.4c0-24.1,9.4-46.7,26.4-63.7c17-17,39.6-26.4,63.7-26.4c20.5,0,39.9,6.8,55.7,19.3L46,257.1
		C33.6,241.3,26.8,221.9,26.8,201.4z"/>
	<path fill="#FFFFFF" d="M551.6,430.7c0,135.3-110.1,245.4-245.4,245.4C170.9,676.1,60.8,566,60.8,430.7s110.1-245.4,245.4-245.4
		C441.5,185.3,551.6,295.4,551.6,430.7z"/>
	<path fill="#FFFFFF" d="M495.2,111.4c24.1,0,46.7,9.4,63.7,26.4c32.6,32.6,34.9,84,7.1,119.3L439.5,130.6
		C455.3,118.2,474.7,111.4,495.2,111.4z"/>
	<path d="M413.9,308.9l-91.2,90.2c-1.8-1-3.8-1.8-5.8-2.4l0-148.7h-21.4l0,148.7c-14.4,4.6-25,18.1-25,34c0,19.7,16,35.7,35.7,35.7
		c19.7,0,35.7-16,35.7-35.7c0-5.9-1.5-11.5-4-16.5L429,324L413.9,308.9z M306.2,444.9c-7.9,0-14.3-6.4-14.3-14.3s6.4-14.3,14.3-14.3
		s14.3,6.4,14.3,14.3S314.1,444.9,306.2,444.9z"/>
</g>
</svg>
