<?xml version="1.0" encoding="utf-8"?>
<!-- Generator: Adobe Illustrator 18.1.1, SVG Export Plug-In . SVG Version: 6.00 Build 0)  -->
<svg version="1.1" id="Layer_1" xmlns="http://www.w3.org/2000/svg" xmlns:xlink="http://www.w3.org/1999/xlink" x="0px" y="0px"
	 viewBox="0 0 137.6 136.2" enable-background="new 0 0 137.6 136.2" xml:space="preserve">
<rect x="184" y="-146.1" fill="#FFFFFF" stroke="#083856" stroke-width="3" stroke-miterlimit="10" width="122.8" height="122.8"/>
<circle fill="#FFFFFF" stroke="#083856" stroke-width="3" stroke-miterlimit="10" cx="68.1" cy="-83.6" r="68.1"/>
<g>
	<path fill="#083856" d="M204.1-97c0,0,1.8-3.5,6.8-3.8c5.3-0.4,7.4,2.9,7.4,2.9c-8.5,5.9-3.2,20.6,1.6,30.6h-4.2
		C208.1-76.3,199.2-89.2,204.1-97"/>
	<path fill="#083856" d="M245.4-62.4h29.8c0,0-0.6,1.6-0.6,5.4c0,3.2,0.8,5,0.8,5h-30h-30c0,0,0.8-1.8,0.8-5c0-3.6-0.6-5.4-0.6-5.4
		H245.4z"/>
	<path fill="#083856" d="M250.3-114c0,2.6-2.2,4.8-4.8,4.8s-4.8-2.2-4.8-4.8c0-2.6,2.2-4.8,4.8-4.8S250.3-116.7,250.3-114"/>
	<path fill="#083856" d="M266.6-104.9c0,0-2.2-3.6-7.9-3.6c-5.6,0-8,3.6-8,3.6c6.5,10.9,2.2,27.4-1.4,37.5h3.8
		C261.5-77.9,273.4-95.2,266.6-104.9"/>
	<path fill="#083856" d="M286.5-97c0,0-1.8-3.5-6.8-3.8c-5.3-0.4-7.4,2.9-7.4,2.9c8.5,5.9,3.2,20.6-1.6,30.6h4.2
		C282.7-76.3,291.6-89.2,286.5-97"/>
	<path fill="#083856" d="M224.2-104.9c0,0,2.2-3.6,7.9-3.6s8,3.6,8,3.6c-6.5,10.9-2.2,27.4,1.4,37.5h-3.8
		C229.1-77.9,217.4-95.2,224.2-104.9"/>
	<path fill="#083856" d="M204.1-97c0,0,1.8-3.5,6.8-3.8c5.3-0.4,7.4,2.9,7.4,2.9c-8.5,5.9-3.2,20.6,1.6,30.6h-4.2
		C208.1-76.3,199.2-89.2,204.1-97"/>
	<path fill="#083856" d="M245.4-62.4h29.8c0,0-0.6,1.6-0.6,5.4c0,3.2,0.8,5,0.8,5h-30h-30c0,0,0.8-1.8,0.8-5c0-3.6-0.6-5.4-0.6-5.4
		H245.4z"/>
	<path fill="#083856" d="M250.3-114c0,2.6-2.2,4.8-4.8,4.8s-4.8-2.2-4.8-4.8c0-2.6,2.2-4.8,4.8-4.8S250.3-116.7,250.3-114"/>
	<path fill="#083856" d="M266.6-104.9c0,0-2.2-3.6-7.9-3.6c-5.6,0-8,3.6-8,3.6c6.5,10.9,2.2,27.4-1.4,37.5h3.8
		C261.5-77.9,273.4-95.2,266.6-104.9"/>
	<path fill="#083856" d="M286.5-97c0,0-1.8-3.5-6.8-3.8c-5.3-0.4-7.4,2.9-7.4,2.9c8.5,5.9,3.2,20.6-1.6,30.6h4.2
		C282.7-76.3,291.6-89.2,286.5-97"/>
	<path fill="#083856" d="M224.2-104.9c0,0,2.2-3.6,7.9-3.6s8,3.6,8,3.6c-6.5,10.9-2.2,27.4,1.4,37.5h-3.8
		C229.1-77.9,217.4-95.2,224.2-104.9"/>
</g>
<g>
	<path fill="#083856" d="M26.7-96.5c0,0,1.8-3.5,6.8-3.8c5.3-0.4,7.4,2.9,7.4,2.9c-8.5,5.9-3.2,20.6,1.6,30.6h-4.2
		C30.8-75.7,21.9-88.7,26.7-96.5"/>
	<path fill="#083856" d="M68.1-61.8h29.8c0,0-0.6,1.6-0.6,5.4c0,3.2,0.8,5,0.8,5h-30h-30c0,0,0.8-1.8,0.8-5c0-3.6-0.6-5.4-0.6-5.4
		H68.1z"/>
	<path fill="#083856" d="M72.9-113.4c0,2.6-2.2,4.8-4.8,4.8c-2.6,0-4.8-2.2-4.8-4.8c0-2.6,2.2-4.8,4.8-4.8
		C70.7-118.3,72.9-116.1,72.9-113.4"/>
	<path fill="#083856" d="M89.3-104.4c0,0-2.2-3.6-7.9-3.6c-5.6,0-8,3.6-8,3.6C79.8-93.5,75.6-77,72-66.8h3.8
		C84.2-77.4,96.1-94.7,89.3-104.4"/>
	<path fill="#083856" d="M109.2-96.5c0,0-1.8-3.5-6.8-3.8c-5.3-0.4-7.4,2.9-7.4,2.9c8.5,5.9,3.2,20.6-1.6,30.6h4.2
		C105.4-75.7,114.3-88.7,109.2-96.5"/>
	<path fill="#083856" d="M46.9-104.4c0,0,2.2-3.6,7.9-3.6s8,3.6,8,3.6c-6.5,10.9-2.2,27.4,1.4,37.5h-3.8
		C51.7-77.4,40.1-94.7,46.9-104.4"/>
	<path fill="#083856" d="M26.7-96.5c0,0,1.8-3.5,6.8-3.8c5.3-0.4,7.4,2.9,7.4,2.9c-8.5,5.9-3.2,20.6,1.6,30.6h-4.2
		C30.8-75.7,21.9-88.7,26.7-96.5"/>
	<path fill="#083856" d="M68.1-61.8h29.8c0,0-0.6,1.6-0.6,5.4c0,3.2,0.8,5,0.8,5h-30h-30c0,0,0.8-1.8,0.8-5c0-3.6-0.6-5.4-0.6-5.4
		H68.1z"/>
	<path fill="#083856" d="M72.9-113.4c0,2.6-2.2,4.8-4.8,4.8c-2.6,0-4.8-2.2-4.8-4.8c0-2.6,2.2-4.8,4.8-4.8
		C70.7-118.3,72.9-116.1,72.9-113.4"/>
	<path fill="#083856" d="M89.3-104.4c0,0-2.2-3.6-7.9-3.6c-5.6,0-8,3.6-8,3.6C79.8-93.5,75.6-77,72-66.8h3.8
		C84.2-77.4,96.1-94.7,89.3-104.4"/>
	<path fill="#083856" d="M109.2-96.5c0,0-1.8-3.5-6.8-3.8c-5.3-0.4-7.4,2.9-7.4,2.9c8.5,5.9,3.2,20.6-1.6,30.6h4.2
		C105.4-75.7,114.3-88.7,109.2-96.5"/>
	<path fill="#083856" d="M46.9-104.4c0,0,2.2-3.6,7.9-3.6s8,3.6,8,3.6c-6.5,10.9-2.2,27.4,1.4,37.5h-3.8
		C51.7-77.4,40.1-94.7,46.9-104.4"/>
</g>
<path fill="#FFFFFF" stroke="#083856" stroke-width="3" stroke-miterlimit="10" d="M451.6-22.2h-76.5c-12.8,0-23.2-10.4-23.2-23.2
	v-76.5c0-12.8,10.4-23.2,23.2-23.2h76.5c12.8,0,23.2,10.4,23.2,23.2v76.5C474.8-32.6,464.4-22.2,451.6-22.2z"/>
<g>
	<path fill="#083856" d="M372.1-96c0,0,1.8-3.5,6.8-3.8c5.3-0.4,7.4,2.9,7.4,2.9c-8.5,5.9-3.2,20.6,1.6,30.6h-4.2
		C376.1-75.2,367.2-88.2,372.1-96"/>
	<path fill="#083856" d="M413.4-61.3h29.8c0,0-0.6,1.6-0.6,5.4c0,3.2,0.8,5,0.8,5h-30h-30c0,0,0.8-1.8,0.8-5c0-3.6-0.6-5.4-0.6-5.4
		H413.4z"/>
	<path fill="#083856" d="M418.2-112.9c0,2.6-2.2,4.8-4.8,4.8s-4.8-2.2-4.8-4.8c0-2.6,2.2-4.8,4.8-4.8S418.2-115.6,418.2-112.9"/>
	<path fill="#083856" d="M434.6-103.8c0,0-2.2-3.6-7.9-3.6s-8,3.6-8,3.6c6.5,10.9,2.2,27.4-1.4,37.5h3.8
		C429.5-76.9,441.4-94.1,434.6-103.8"/>
	<path fill="#083856" d="M454.5-96c0,0-1.8-3.5-6.8-3.8c-5.3-0.4-7.4,2.9-7.4,2.9c8.5,5.9,3.2,20.6-1.6,30.6h4.2
		C450.7-75.2,459.6-88.2,454.5-96"/>
	<path fill="#083856" d="M392.2-103.8c0,0,2.2-3.6,7.9-3.6s8,3.6,8,3.6c-6.5,10.9-2.2,27.4,1.4,37.5h-3.8
		C397.1-76.9,385.4-94.1,392.2-103.8"/>
	<path fill="#083856" d="M372.1-96c0,0,1.8-3.5,6.8-3.8c5.3-0.4,7.4,2.9,7.4,2.9c-8.5,5.9-3.2,20.6,1.6,30.6h-4.2
		C376.1-75.2,367.2-88.2,372.1-96"/>
	<path fill="#083856" d="M413.4-61.3h29.8c0,0-0.6,1.6-0.6,5.4c0,3.2,0.8,5,0.8,5h-30h-30c0,0,0.8-1.8,0.8-5c0-3.6-0.6-5.4-0.6-5.4
		H413.4z"/>
	<path fill="#083856" d="M418.2-112.9c0,2.6-2.2,4.8-4.8,4.8s-4.8-2.2-4.8-4.8c0-2.6,2.2-4.8,4.8-4.8S418.2-115.6,418.2-112.9"/>
	<path fill="#083856" d="M434.6-103.8c0,0-2.2-3.6-7.9-3.6s-8,3.6-8,3.6c6.5,10.9,2.2,27.4-1.4,37.5h3.8
		C429.5-76.9,441.4-94.1,434.6-103.8"/>
	<path fill="#083856" d="M454.5-96c0,0-1.8-3.5-6.8-3.8c-5.3-0.4-7.4,2.9-7.4,2.9c8.5,5.9,3.2,20.6-1.6,30.6h4.2
		C450.7-75.2,459.6-88.2,454.5-96"/>
	<path fill="#083856" d="M392.2-103.8c0,0,2.2-3.6,7.9-3.6s8,3.6,8,3.6c-6.5,10.9-2.2,27.4,1.4,37.5h-3.8
		C397.1-76.9,385.4-94.1,392.2-103.8"/>
</g>
<rect x="185.5" y="5.6" fill="#083856" width="122.8" height="122.8"/>
<circle fill="#0D608F" cx="69.5" cy="68.1" r="68.1"/>
<g>
	<path fill="#FFFFFF" d="M205.5,54.6c0,0,1.8-3.5,6.8-3.8c5.3-0.4,7.4,2.9,7.4,2.9c-8.5,5.9-3.2,20.6,1.6,30.6h-4.2
		C209.6,75.4,200.7,62.4,205.5,54.6"/>
	<path fill="#FFFFFF" d="M246.9,89.3h29.8c0,0-0.6,1.6-0.6,5.4c0,3.2,0.8,5,0.8,5h-30h-30c0,0,0.8-1.8,0.8-5c0-3.6-0.6-5.4-0.6-5.4
		H246.9z"/>
	<path fill="#FFFFFF" d="M251.7,37.7c0,2.6-2.2,4.8-4.8,4.8s-4.8-2.2-4.8-4.8s2.2-4.8,4.8-4.8S251.7,35,251.7,37.7"/>
	<path fill="#FFFFFF" d="M268,46.8c0,0-2.2-3.6-7.9-3.6s-8,3.6-8,3.6c6.5,10.9,2.2,27.4-1.4,37.5h3.8
		C262.9,73.7,274.9,56.4,268,46.8"/>
	<path fill="#FFFFFF" d="M287.9,54.6c0,0-1.8-3.5-6.8-3.8c-5.3-0.4-7.4,2.9-7.4,2.9c8.5,5.9,3.2,20.6-1.6,30.6h4.2
		C284.1,75.4,293,62.4,287.9,54.6"/>
	<path fill="#FFFFFF" d="M225.7,46.8c0,0,2.2-3.6,7.9-3.6s8,3.6,8,3.6c-6.5,10.9-2.2,27.4,1.4,37.5h-3.8
		C230.5,73.7,218.8,56.4,225.7,46.8"/>
	<path fill="#FFFFFF" d="M205.5,54.6c0,0,1.8-3.5,6.8-3.8c5.3-0.4,7.4,2.9,7.4,2.9c-8.5,5.9-3.2,20.6,1.6,30.6h-4.2
		C209.6,75.4,200.7,62.4,205.5,54.6"/>
	<path fill="#FFFFFF" d="M246.9,89.3h29.8c0,0-0.6,1.6-0.6,5.4c0,3.2,0.8,5,0.8,5h-30h-30c0,0,0.8-1.8,0.8-5c0-3.6-0.6-5.4-0.6-5.4
		H246.9z"/>
	<path fill="#FFFFFF" d="M251.7,37.7c0,2.6-2.2,4.8-4.8,4.8s-4.8-2.2-4.8-4.8s2.2-4.8,4.8-4.8S251.7,35,251.7,37.7"/>
	<path fill="#FFFFFF" d="M268,46.8c0,0-2.2-3.6-7.9-3.6s-8,3.6-8,3.6c6.5,10.9,2.2,27.4-1.4,37.5h3.8
		C262.9,73.7,274.9,56.4,268,46.8"/>
	<path fill="#FFFFFF" d="M287.9,54.6c0,0-1.8-3.5-6.8-3.8c-5.3-0.4-7.4,2.9-7.4,2.9c8.5,5.9,3.2,20.6-1.6,30.6h4.2
		C284.1,75.4,293,62.4,287.9,54.6"/>
	<path fill="#FFFFFF" d="M225.7,46.8c0,0,2.2-3.6,7.9-3.6s8,3.6,8,3.6c-6.5,10.9-2.2,27.4,1.4,37.5h-3.8
		C230.5,73.7,218.8,56.4,225.7,46.8"/>
</g>
<g>
	<path fill="#FFFFFF" d="M28.2,55.2c0,0,1.8-3.5,6.8-3.8c5.3-0.4,7.4,2.9,7.4,2.9c-8.5,5.9-3.2,20.6,1.6,30.6h-4.2
		C32.2,75.9,23.3,63,28.2,55.2"/>
	<path fill="#FFFFFF" d="M69.5,89.8h29.8c0,0-0.6,1.6-0.6,5.4c0,3.2,0.8,5,0.8,5h-30h-30c0,0,0.8-1.8,0.8-5c0-3.6-0.6-5.4-0.6-5.4
		H69.5z"/>
	<path fill="#FFFFFF" d="M74.4,38.2c0,2.6-2.2,4.8-4.8,4.8c-2.6,0-4.8-2.2-4.8-4.8s2.2-4.8,4.8-4.8C72.1,33.4,74.4,35.5,74.4,38.2"
		/>
	<path fill="#FFFFFF" d="M90.7,47.3c0,0-2.2-3.6-7.9-3.6s-8,3.6-8,3.6c6.5,10.9,2.2,27.4-1.4,37.5h3.8C85.6,74.3,97.5,57,90.7,47.3"
		/>
	<path fill="#FFFFFF" d="M110.6,55.2c0,0-1.8-3.5-6.8-3.8c-5.3-0.4-7.4,2.9-7.4,2.9c8.5,5.9,3.2,20.6-1.6,30.6h4.2
		C106.8,75.9,115.7,63,110.6,55.2"/>
	<path fill="#FFFFFF" d="M48.3,47.3c0,0,2.2-3.6,7.9-3.6s8,3.6,8,3.6c-6.5,10.9-2.2,27.4,1.4,37.5h-3.8C53.2,74.3,41.5,57,48.3,47.3
		"/>
	<path fill="#FFFFFF" d="M28.2,55.2c0,0,1.8-3.5,6.8-3.8c5.3-0.4,7.4,2.9,7.4,2.9c-8.5,5.9-3.2,20.6,1.6,30.6h-4.2
		C32.2,75.9,23.3,63,28.2,55.2"/>
	<path fill="#FFFFFF" d="M69.5,89.8h29.8c0,0-0.6,1.6-0.6,5.4c0,3.2,0.8,5,0.8,5h-30h-30c0,0,0.8-1.8,0.8-5c0-3.6-0.6-5.4-0.6-5.4
		H69.5z"/>
	<path fill="#FFFFFF" d="M74.4,38.2c0,2.6-2.2,4.8-4.8,4.8c-2.6,0-4.8-2.2-4.8-4.8s2.2-4.8,4.8-4.8C72.1,33.4,74.4,35.5,74.4,38.2"
		/>
	<path fill="#FFFFFF" d="M90.7,47.3c0,0-2.2-3.6-7.9-3.6s-8,3.6-8,3.6c6.5,10.9,2.2,27.4-1.4,37.5h3.8C85.6,74.3,97.5,57,90.7,47.3"
		/>
	<path fill="#FFFFFF" d="M110.6,55.2c0,0-1.8-3.5-6.8-3.8c-5.3-0.4-7.4,2.9-7.4,2.9c8.5,5.9,3.2,20.6-1.6,30.6h4.2
		C106.8,75.9,115.7,63,110.6,55.2"/>
	<path fill="#FFFFFF" d="M48.3,47.3c0,0,2.2-3.6,7.9-3.6s8,3.6,8,3.6c-6.5,10.9-2.2,27.4,1.4,37.5h-3.8C53.2,74.3,41.5,57,48.3,47.3
		"/>
</g>
<path fill="#083856" d="M453.1,129.5h-76.5c-12.8,0-23.2-10.4-23.2-23.2V29.8c0-12.8,10.4-23.2,23.2-23.2h76.5
	c12.8,0,23.2,10.4,23.2,23.2v76.5C476.2,119.1,465.9,129.5,453.1,129.5z"/>
<g>
	<path fill="#FFFFFF" d="M373.5,55.7c0,0,1.8-3.5,6.8-3.8c5.3-0.4,7.4,2.9,7.4,2.9c-8.5,5.9-3.2,20.6,1.6,30.6h-4.2
		C377.6,76.5,368.7,63.5,373.5,55.7"/>
	<path fill="#FFFFFF" d="M414.8,90.4h29.8c0,0-0.6,1.6-0.6,5.4c0,3.2,0.8,5,0.8,5h-30h-30c0,0,0.8-1.8,0.8-5c0-3.6-0.6-5.4-0.6-5.4
		H414.8z"/>
	<path fill="#FFFFFF" d="M419.7,38.8c0,2.6-2.2,4.8-4.8,4.8s-4.8-2.2-4.8-4.8s2.2-4.8,4.8-4.8S419.7,36.1,419.7,38.8"/>
	<path fill="#FFFFFF" d="M436,47.8c0,0-2.2-3.6-7.9-3.6s-8,3.6-8,3.6c6.5,10.9,2.2,27.4-1.4,37.5h3.8
		C430.9,74.8,442.9,57.5,436,47.8"/>
	<path fill="#FFFFFF" d="M455.9,55.7c0,0-1.8-3.5-6.8-3.8c-5.3-0.4-7.4,2.9-7.4,2.9c8.5,5.9,3.2,20.6-1.6,30.6h4.2
		C452.1,76.5,461,63.5,455.9,55.7"/>
	<path fill="#FFFFFF" d="M393.6,47.8c0,0,2.2-3.6,7.9-3.6s8,3.6,8,3.6c-6.5,10.9-2.2,27.4,1.4,37.5h-3.8
		C398.5,74.8,386.8,57.5,393.6,47.8"/>
	<path fill="#FFFFFF" d="M373.5,55.7c0,0,1.8-3.5,6.8-3.8c5.3-0.4,7.4,2.9,7.4,2.9c-8.5,5.9-3.2,20.6,1.6,30.6h-4.2
		C377.6,76.5,368.7,63.5,373.5,55.7"/>
	<path fill="#FFFFFF" d="M414.8,90.4h29.8c0,0-0.6,1.6-0.6,5.4c0,3.2,0.8,5,0.8,5h-30h-30c0,0,0.8-1.8,0.8-5c0-3.6-0.6-5.4-0.6-5.4
		H414.8z"/>
	<path fill="#FFFFFF" d="M419.7,38.8c0,2.6-2.2,4.8-4.8,4.8s-4.8-2.2-4.8-4.8s2.2-4.8,4.8-4.8S419.7,36.1,419.7,38.8"/>
	<path fill="#FFFFFF" d="M436,47.8c0,0-2.2-3.6-7.9-3.6s-8,3.6-8,3.6c6.5,10.9,2.2,27.4-1.4,37.5h3.8
		C430.9,74.8,442.9,57.5,436,47.8"/>
	<path fill="#FFFFFF" d="M455.9,55.7c0,0-1.8-3.5-6.8-3.8c-5.3-0.4-7.4,2.9-7.4,2.9c8.5,5.9,3.2,20.6-1.6,30.6h4.2
		C452.1,76.5,461,63.5,455.9,55.7"/>
	<path fill="#FFFFFF" d="M393.6,47.8c0,0,2.2-3.6,7.9-3.6s8,3.6,8,3.6c-6.5,10.9-2.2,27.4,1.4,37.5h-3.8
		C398.5,74.8,386.8,57.5,393.6,47.8"/>
</g>
</svg>
