<?xml version="1.0" encoding="utf-8"?>
<!-- Generator: Adobe Illustrator 18.1.1, SVG Export Plug-In . SVG Version: 6.00 Build 0)  -->
<svg version="1.1" id="Layer_1" xmlns="http://www.w3.org/2000/svg" xmlns:xlink="http://www.w3.org/1999/xlink" x="0px" y="0px"
	 viewBox="0 0 122.8 122.8" enable-background="new 0 0 122.8 122.8" xml:space="preserve">
<rect x="0" y="0" fill="#083856" width="122.8" height="122.8"/>
<g>
	<path fill="#FFFFFF" d="M20.1,49c0,0,1.8-3.5,6.8-3.8c5.3-0.4,7.4,2.9,7.4,2.9C25.8,54,31.1,68.7,36,78.7h-4.2
		C24.1,69.8,15.2,56.8,20.1,49"/>
	<path fill="#FFFFFF" d="M61.4,83.7h29.8c0,0-0.6,1.6-0.6,5.4c0,3.2,0.8,5,0.8,5h-30h-30c0,0,0.8-1.8,0.8-5c0-3.6-0.6-5.4-0.6-5.4
		H61.4z"/>
	<path fill="#FFFFFF" d="M66.2,32.1c0,2.6-2.2,4.8-4.8,4.8s-4.8-2.2-4.8-4.8c0-2.6,2.2-4.8,4.8-4.8S66.2,29.4,66.2,32.1"/>
	<path fill="#FFFFFF" d="M82.6,41.2c0,0-2.2-3.6-7.9-3.6c-5.6,0-8,3.6-8,3.6c6.5,10.9,2.2,27.4-1.4,37.5h3.8
		C77.5,68.1,89.4,50.8,82.6,41.2"/>
	<path fill="#FFFFFF" d="M102.5,49c0,0-1.8-3.5-6.8-3.8c-5.3-0.4-7.4,2.9-7.4,2.9c8.5,5.9,3.2,20.6-1.6,30.6h4.2
		C98.7,69.8,107.6,56.8,102.5,49"/>
	<path fill="#FFFFFF" d="M40.2,41.2c0,0,2.2-3.6,7.9-3.6s8,3.6,8,3.6c-6.5,10.9-2.2,27.4,1.4,37.5h-3.8C45,68.1,33.4,50.8,40.2,41.2
		"/>
	<path fill="#FFFFFF" d="M20.1,49c0,0,1.8-3.5,6.8-3.8c5.3-0.4,7.4,2.9,7.4,2.9C25.8,54,31.1,68.7,36,78.7h-4.2
		C24.1,69.8,15.2,56.8,20.1,49"/>
	<path fill="#FFFFFF" d="M61.4,83.7h29.8c0,0-0.6,1.6-0.6,5.4c0,3.2,0.8,5,0.8,5h-30h-30c0,0,0.8-1.8,0.8-5c0-3.6-0.6-5.4-0.6-5.4
		H61.4z"/>
	<path fill="#FFFFFF" d="M66.2,32.1c0,2.6-2.2,4.8-4.8,4.8s-4.8-2.2-4.8-4.8c0-2.6,2.2-4.8,4.8-4.8S66.2,29.4,66.2,32.1"/>
	<path fill="#FFFFFF" d="M82.6,41.2c0,0-2.2-3.6-7.9-3.6c-5.6,0-8,3.6-8,3.6c6.5,10.9,2.2,27.4-1.4,37.5h3.8
		C77.5,68.1,89.4,50.8,82.6,41.2"/>
	<path fill="#FFFFFF" d="M102.5,49c0,0-1.8-3.5-6.8-3.8c-5.3-0.4-7.4,2.9-7.4,2.9c8.5,5.9,3.2,20.6-1.6,30.6h4.2
		C98.7,69.8,107.6,56.8,102.5,49"/>
	<path fill="#FFFFFF" d="M40.2,41.2c0,0,2.2-3.6,7.9-3.6s8,3.6,8,3.6c-6.5,10.9-2.2,27.4,1.4,37.5h-3.8C45,68.1,33.4,50.8,40.2,41.2
		"/>
</g>
</svg>
