<?xml version="1.0" encoding="utf-8"?>
<!-- Generator: Adobe Illustrator 18.1.1, SVG Export Plug-In . SVG Version: 6.00 Build 0)  -->
<svg version="1.1" id="Capa_1" xmlns="http://www.w3.org/2000/svg" xmlns:xlink="http://www.w3.org/1999/xlink" x="0px" y="0px"
	 viewBox="-132.9 80.1 669 637.5" enable-background="new -132.9 80.1 669 637.5" xml:space="preserve">
<g>
	<g>
		<path d="M97.2,690.9c5.5,7.4,13.9,11.1,22.2,11.1c5.5,0,11.5-1.8,16.6-5.5l373.2-278.5c6.9-5.1,11.1-13.4,11.1-22.2
			s-4.2-17.1-11.1-22.2L136,95.5c-12.5-9.2-29.6-6.5-38.8,5.5c-9.2,12.5-6.5,29.6,5.5,38.8l343.7,256.4L102.7,652.6
			C90.7,661.3,88,678.9,97.2,690.9z"/>
	</g>
</g>
<g>
	<g>
		<path d="M-108,690.9c5.5,7.4,13.9,11.1,22.2,11.1c5.5,0,11.5-1.8,16.6-5.5L304,417.9c6.9-5.1,11.1-13.4,11.1-22.2
			s-4.2-17.1-11.1-22.2L-69.2,95.5C-81.7,86.3-98.7,89-108,101c-9.2,12.5-6.5,29.6,5.5,38.8l343.7,256.4l-343.7,256.4
			C-114.5,661.4-117.2,678.9-108,690.9z"/>
	</g>
</g>
</svg>
