<?xml version="1.0" encoding="utf-8"?>
<!-- Generator: Adobe Illustrator 18.1.1, SVG Export Plug-In . SVG Version: 6.00 Build 0)  -->
<svg version="1.1" id="Capa_1" xmlns="http://www.w3.org/2000/svg" xmlns:xlink="http://www.w3.org/1999/xlink" x="0px" y="0px"
	 viewBox="-118 82 612 632" enable-background="new -118 82 612 632" xml:space="preserve">
<g>
	<g>
		<path fill="#010002" d="M467.4,367l-265-265c-15.9-15.9-41.8-15.9-57.8,0s-15.9,41.8,0,57.8L380.9,396L144.6,632.3
			c-15.9,15.9-15.9,41.8,0,57.8c15.9,15.9,41.8,15.9,57.8,0l265-265c8.1-8.1,12-18.6,11.9-29C479.3,385.5,475.4,375,467.4,367z"/>
	</g>
</g>
<g>
	<g>
		<path fill="#010002" d="M230.4,367l-265-265C-50.6,86-76.5,86-92.4,102s-15.9,41.8,0,57.8L143.9,396L-92.4,632.3
			c-15.9,15.9-15.9,41.8,0,57.8c15.9,15.9,41.8,15.9,57.8,0l265-265c8.1-8.1,12-18.6,11.9-29C242.3,385.5,238.4,375,230.4,367z"/>
	</g>
</g>
</svg>
