<?xml version="1.0" encoding="utf-8"?>
<!-- Generator: Adobe Illustrator 18.1.1, SVG Export Plug-In . SVG Version: 6.00 Build 0)  -->
<svg version="1.1" xmlns="http://www.w3.org/2000/svg" xmlns:xlink="http://www.w3.org/1999/xlink" x="0px" y="0px"
	 viewBox="0 91 612 612" enable-background="new 0 91 612 612" xml:space="preserve">
<g id="Layer_2">
	<circle fill="#FFFFFF" stroke="#000000" stroke-miterlimit="10" cx="303.5" cy="394.5" r="298.5"/>
</g>
<g id="Capa_1">
	<g>
		<g>
			<path d="M230.7,272.2c-2.4,2.6-3.9,4.3-5.1,5.5C227.8,275.4,230.7,272.2,230.7,272.2z"/>
			<path d="M337,291.9c8,9.8,11.9,21.3,11.9,34.6c0,9.5-2.7,18.7-8.2,27.5c-3,5-6.9,9.8-11.8,14.5l-16.3,16.1
				c-15.6,15.4-25.7,29-30.4,40.9c-4.6,11.9-6.9,27.5-6.9,47h36.3c0-17.1,1.9-30,5.8-38.8c3.9-8.8,12.3-19.4,25.4-32.1
				c17.9-17.4,29.8-30.6,35.7-39.5s8.9-20.6,8.9-35.1c0-23.8-8-43.3-24.1-58.6c-16.1-15.3-37.5-22.9-64.3-22.9
				c-28.9,0-51.7,8.9-68.3,26.8s-24.9,41.4-24.9,70.8h36.3c0.7-17.7,3.5-31.2,8.3-40.6c8.7-16.8,24.4-25.3,47.1-25.3
				C315.9,277.2,329,282.1,337,291.9z"/>
			<path d="M612,397c0-169-137-306-306-306C137,91,0,228,0,397c0,169,137,306,306,306C475,703,612,566,612,397z M27.8,397
				c0-153.6,124.5-278.2,278.2-278.2S584.2,243.4,584.2,397S459.6,675.2,306,675.2S27.8,550.6,27.8,397z"/>
			<rect x="274.5" y="506.2" width="40.6" height="42.4"/>
		</g>
	</g>
</g>
</svg>
