<?xml version="1.0" encoding="utf-8"?>
<!-- Generator: Adobe Illustrator 18.1.1, SVG Export Plug-In . SVG Version: 6.00 Build 0)  -->
<svg version="1.1" xmlns="http://www.w3.org/2000/svg" xmlns:xlink="http://www.w3.org/1999/xlink" x="0px" y="0px"
	 viewBox="0 0 612 792" enable-background="new 0 0 612 792" xml:space="preserve">
<g id="Layer_2">
</g>
<g id="Layer_3">
	<circle fill="#FFFFFF" cx="306" cy="396" r="304"/>
</g>
<g id="Capa_1">
	<g>
		<path fill="#010002" d="M306,702C137.3,702,0,564.7,0,396C0,227.3,137.3,90,306,90s306,137.3,306,306C612,564.7,474.7,702,306,702
			z M306,113.5C150.2,113.5,23.5,240.3,23.5,396S150.3,678.5,306,678.5S588.5,551.7,588.5,396S461.7,113.5,306,113.5z"/>
	</g>
	<path fill="#010002" d="M335.8,241.5c0.5,16.4-11.5,29.5-30.6,29.5c-16.9,0-29-13.1-29-29.5c0-16.9,12.6-30,30-30
		C324.3,211.5,335.8,224.6,335.8,241.5z"/>
	<rect x="282.2" y="339" fill="#010002" width="48.1" height="241.2"/>
</g>
</svg>
