<?xml version="1.0" encoding="utf-8"?>
<!-- Generator: Adobe Illustrator 19.1.0, SVG Export Plug-In . SVG Version: 6.00 Build 0)  -->
<svg version="1.1" id="Capa_1" xmlns="http://www.w3.org/2000/svg" xmlns:xlink="http://www.w3.org/1999/xlink" x="0px" y="0px"
	 viewBox="-114.2 383.3 458.3 413.5" style="enable-background:new -114.2 383.3 458.3 413.5;" xml:space="preserve">
<g>
	<path d="M332,411.3h-26.2v-11.8c0-8.9-7.2-16.2-16.2-16.2c-8.9,0-16.2,7.2-16.2,16.2v11.8h-22.6v-11.8c0-8.9-7.2-16.2-16.2-16.2
		c-8.9,0-16.2,7.2-16.2,16.2v11.8H196v-11.8c0-8.9-7.2-16.2-16.2-16.2c-8.9,0-16.2,7.2-16.2,16.2v11.8H141v-11.8
		c0-8.9-7.2-16.2-16.2-16.2c-8.9,0-16.2,7.2-16.2,16.2v11.8H86v-11.8c0-8.9-7.2-16.2-16.2-16.2c-8.9,0-16.2,7.2-16.2,16.2v11.8H29.4
		c-6.7,0-12.1,5.4-12.1,12.1v204.2l24.2-24.2V435.6h12.1v11.5c0,8.9,7.2,16.2,16.2,16.2c8.9,0,16.2-7.2,16.2-16.2v-11.6h22.6V447
		c0,8.9,7.2,16.2,16.2,16.2c8.9,0,16.2-7.2,16.2-16.2v-11.5h22.6V447c0,8.9,7.2,16.2,16.2,16.2c8.9,0,16.2-7.2,16.2-16.2v-11.5h22.6
		V447c0,8.9,7.2,16.2,16.2,16.2c8.9,0,16.2-7.2,16.2-16.2v-11.5h22.6V447c0,8.9,7.2,16.2,16.2,16.2S306,456,306,447v-11.5h14.1
		v337.1H41.8V661.3l-24.2,24.2v99.2c0,6.7,5.4,12.1,12.1,12.1H332c6.7,0,12.1-5.4,12.1-12.1V423.4
		C344.2,416.7,338.7,411.3,332,411.3z"/>
	<path d="M181.1,580.2l29.7-51.9c2-3.6,1.8-8-0.5-11.4c-2.4-3.4-6.5-5.1-10.5-4.3L140.9,523c-1.5,0.3-3,0.9-2.5,2.1L-97.1,690.5
		c-9.6,5.2-14.8,13.5-16.5,23s0.5,19,6,26.9s13.8,13.1,23.3,14.8s19-0.5,28.6-5.7L179.6,584C179.2,582.7,180.3,581.5,181.1,580.2z
		 M-69.5,731.7c-6.5,4.6-16.1,2.9-20.6-3.6c-2.3-3.2-3.2-7.2-2.5-11.1c0.7-3.9,2.8-7.3,6.1-9.6l9.4-6.6l17,24.2L-69.5,731.7z
		 M-46.8,717.3l-17-24.2l208.5-146.7l17,24.2L-46.8,717.3z M169,558.6l-12-17l17.2-3l3.4,4.9L169,558.6z"/>
</g>
</svg>
