<?xml version="1.0" encoding="utf-8"?>
<!-- Generator: Adobe Illustrator 18.1.1, SVG Export Plug-In . SVG Version: 6.00 Build 0)  -->
<svg version="1.1" id="Layer_1" xmlns="http://www.w3.org/2000/svg" xmlns:xlink="http://www.w3.org/1999/xlink" x="0px" y="0px"
	 viewBox="0 290 612 214" enable-background="new 0 290 612 214" xml:space="preserve">
<g>
	<path fill="#083756" d="M352.3,436.6c0,7.5-1.4,14.5-4.2,20.7c-2.8,6.5-6.3,12.1-10.7,16.8c-4.4,4.7-9.6,8.4-15.4,11.2
		c-5.8,2.8-11.7,4.2-18,4.2c-9.6,0-17.5-3-23.3-9.3c-5.8-6.3-8.9-14.2-8.9-24c0-7.5,1.4-14.5,4.2-21c2.8-6.5,6.3-12.1,10.7-16.8
		c4.4-4.9,9.6-8.6,15.4-11.4c5.8-2.8,11.9-4.2,18-4.2c9.6,0,17.3,3,23.3,9.1C349.2,418.1,352.3,426.3,352.3,436.6z M329.9,467.8
		c2.8-4.9,4.9-10.3,6.3-16.3c1.4-6.1,2.3-12.1,2.3-18.2c0-7.7-1.6-14-4.9-18.7c-3.3-4.7-8.2-7-14.7-7c-4.9,0-9.6,1.4-14,4.4
		c-4.2,3-7.9,7.2-11.2,13.1c-2.8,5.1-4.9,10.5-6.3,16.6c-1.4,6.1-2.1,11.7-2.1,17c0,8.2,1.6,14.5,5.1,19.1c3.5,4.7,8.2,6.8,14.5,6.8
		c5.4,0,10-1.6,14.5-4.9C323.6,476.7,327.1,472.7,329.9,467.8z"/>
	<path fill="#083756" d="M419.2,480.9l-0.9,3.7c-3.5,1.4-6.3,2.3-8.2,3s-4,0.9-5.8,0.9c-3,0-5.4-0.7-7-2.3s-2.3-3.5-2.3-6.1
		c0-0.9,0-1.9,0.2-2.8c0.2-0.9,0.5-2.3,0.7-3.7l5.8-21.7c0.5-1.6,0.7-3.3,0.9-4.7c0.2-1.4,0.5-2.6,0.5-3.3c0-2.6-0.7-4.7-1.9-6.3
		c-1.2-1.6-3-2.3-5.6-2.3c-2.3,0-4.9,0.7-7.9,2.3c-3,1.6-5.6,3.7-8.2,6.8l-10,42.9h-11l8.9-37.8c0.2-0.9,0.5-2.3,0.9-4
		c0.5-1.9,0.5-3.3,0.5-4.2c0-2.1-0.5-3.7-1.2-4.4c-0.7-0.7-2.3-1.2-4.4-1.2c-0.9,0-1.9,0.2-3.3,0.5c-1.4,0.2-2.3,0.5-3,0.7l0.9-3.7
		c3-1.4,5.8-2.3,8.2-3c2.3-0.7,4.4-0.9,6.1-0.9c3,0,5.4,0.9,6.5,2.6c1.2,1.6,2.1,4,2.1,7h0.2c4.2-3.5,7.9-6.1,11-7.7
		c3-1.6,6.5-2.6,10.5-2.6c3.7,0,6.5,1.2,8.6,3.3s3,4.9,3,8.4c0,0.7,0,1.9-0.2,3.7c-0.2,1.9-0.5,3.5-0.9,5.4L408,468
		c-0.5,1.2-0.7,2.6-0.9,4.2c-0.2,1.6-0.5,2.8-0.5,3.7c0,2.3,0.5,3.7,1.4,4.4s2.6,1.2,4.9,1.2c0.7,0,1.9-0.2,3.3-0.5
		C417.3,481.3,418.5,481.1,419.2,480.9z"/>
	<path fill="#083756" d="M456.5,398.1l-16.3,70.2c-0.5,1.4-0.7,3-0.9,4.4c-0.2,1.4-0.5,2.8-0.5,3.7c0,2.3,0.5,3.7,1.4,4.7
		c0.9,0.9,2.6,1.2,4.9,1.2c0.7,0,1.9,0,3.5-0.2c1.6-0.2,2.8-0.5,3.5-0.7l-0.9,3.7c-3.5,1.4-6.3,2.3-8.2,3c-1.9,0.5-4,0.9-6.3,0.9
		c-3,0-5.4-0.7-7-2.3c-1.6-1.6-2.3-3.5-2.3-6.1c0-0.9,0-1.9,0.2-2.8c0.2-0.9,0.5-2.1,0.7-3.7l14.2-61.5c0.2-1.2,0.5-2.1,0.5-2.6
		s0.2-1.2,0.2-1.9c0-1.4-0.2-2.6-0.7-3.3c-0.5-0.7-1.2-1.4-2.1-1.6c-0.9-0.5-1.9-0.7-3-0.7c-1.2,0-2.6-0.2-3.7-0.5l0.9-3.5l21.7-1.4
		L456.5,398.1z"/>
	<path fill="#083756" d="M486.3,481.3l-0.9,3.7c-3.5,1.4-6.5,2.3-8.6,3c-2.1,0.5-4,0.9-5.6,0.9c-3,0-5.4-0.7-7-2.3
		c-1.6-1.6-2.3-3.5-2.3-6.1c0-0.9,0-1.9,0.2-2.8c0.2-0.9,0.5-2.1,0.7-3.7l6.1-24.7c0.2-1.4,0.7-2.8,0.9-4.4s0.5-2.8,0.5-4
		c0-2.1-0.5-3.7-1.2-4.4c-0.7-0.7-2.1-1.2-4.4-1.2c-0.9,0-2.1,0.2-3.5,0.5c-1.4,0.2-2.6,0.5-3.3,0.7l0.9-3.7c3-1.4,5.8-2.3,8.2-3
		c2.3-0.7,4.4-0.9,5.8-0.9c3.3,0,5.6,0.7,7,2.3s2.1,3.5,2.1,6.1c0,0.7,0,1.6-0.2,2.8s-0.5,2.3-0.7,3.7l-6.3,24.7
		c-0.5,1.6-0.7,3-0.9,4.4c-0.2,1.4-0.5,2.6-0.5,3.5c0,2.3,0.5,3.7,1.4,4.7c0.9,0.9,2.6,1.2,4.9,1.2c0.7,0,1.9,0,3.3-0.2
		C484.7,481.8,485.6,481.6,486.3,481.3z M490.5,406.5c0,2.3-0.7,4.2-2.1,5.8c-1.4,1.6-3.3,2.6-5.4,2.6c-2.1,0-3.7-0.7-5.1-2.3
		c-1.4-1.6-2.1-3.3-2.1-5.4s0.7-4,2.1-5.6c1.4-1.6,3.3-2.3,5.1-2.3c2.3,0,4,0.7,5.4,2.3C489.8,402.8,490.5,404.6,490.5,406.5z"/>
	<path fill="#083756" d="M555.6,480.9l-0.9,3.7c-3.5,1.4-6.3,2.3-8.2,3c-1.9,0.7-4,0.9-5.8,0.9c-3,0-5.4-0.7-7-2.3
		c-1.6-1.6-2.3-3.5-2.3-6.1c0-0.9,0-1.9,0.2-2.8s0.5-2.3,0.7-3.7l5.8-21.7c0.5-1.6,0.7-3.3,0.9-4.7c0.2-1.4,0.5-2.6,0.5-3.3
		c0-2.6-0.7-4.7-1.9-6.3c-1.2-1.6-3-2.3-5.6-2.3c-2.3,0-4.9,0.7-7.9,2.3c-3,1.6-5.6,3.7-8.2,6.8l-10,43.1h-11l8.9-37.8
		c0.2-0.9,0.5-2.3,0.9-4c0.5-1.9,0.5-3.3,0.5-4.2c0-2.1-0.5-3.7-1.2-4.4s-2.3-1.2-4.4-1.2c-0.9,0-1.9,0.2-3.3,0.5s-2.3,0.5-3,0.7
		l0.9-3.7c3-1.4,5.8-2.3,8.2-3s4.4-0.9,6.1-0.9c3,0,5.4,0.9,6.5,2.6s2.1,4,2.1,7h0.2c4.2-3.5,7.9-6.1,11-7.7c3-1.6,6.5-2.6,10.5-2.6
		c3.7,0,6.5,1.2,8.6,3.3c2.1,2.1,3,4.9,3,8.4c0,0.7,0,1.9-0.2,3.7c-0.2,1.9-0.5,3.5-0.9,5.4l-4.9,18.7c-0.5,1.2-0.7,2.6-0.9,4.2
		s-0.5,2.8-0.5,3.7c0,2.3,0.5,3.7,1.4,4.4c0.9,0.7,2.6,1.2,4.9,1.2c0.7,0,1.9-0.2,3.3-0.5C553.9,481.3,554.9,481.1,555.6,480.9z"/>
	<path fill="#083756" d="M612,440.8c0,4.2-1.4,7.7-4,10.7c-2.6,3-6.3,5.4-11.2,7c-3.7,1.4-7.2,2.3-11,3.3c-3.7,0.9-7.7,1.4-12.4,2.1
		c0,6.1,1.2,11,3.5,14c2.3,3.3,5.6,4.9,10,4.9c4,0,7.2-0.9,10.3-3c3-1.9,5.8-4.9,8.9-8.6l3.3,2.6c-3,4.7-7,8.6-11.7,11.4
		c-4.7,2.8-9.6,4.2-14.5,4.2c-7,0-12.1-1.9-15.9-5.8s-5.4-9.3-5.4-16.3c0-4.9,0.7-9.6,2.3-14c1.6-4.4,3.7-8.6,6.8-12.1
		c2.8-3.7,6.3-6.5,10.5-8.9c4.2-2.3,8.9-3.3,13.8-3.3c5.6,0,9.8,1.2,12.4,3.5C610.6,434.2,612,437.3,612,440.8z M601.3,439.4
		c0-1.4-0.2-2.8-0.7-3.5c-0.5-0.9-0.9-1.6-1.6-1.9c-0.7-0.5-1.4-0.7-2.3-0.9c-0.9-0.2-1.6-0.2-2.3-0.2c-4.7,0-9.1,2.6-12.8,7.7
		c-4,5.1-6.5,11.4-7.5,19.1c2.8-0.5,5.8-0.9,9.3-1.6s6.3-1.6,8.6-2.8c3.3-1.6,5.6-3.7,7.2-6.5C600.8,445.9,601.3,442.9,601.3,439.4z
		"/>
</g>
<path fill="#083756" d="M41,490.4c-25.4,0-41-18.9-41-42.7c0-25.2,17.7-45.2,43.8-45.2c25.4,0,40.8,18.9,40.8,42.7
	C84.6,469.9,67.6,490.4,41,490.4z M40.8,415.4c-12.8,0-22.6,10.3-22.6,28.4c0,20.3,9.8,33.6,25.6,33.6c12.8,0,22.4-11,22.4-28.7
	C66.4,429.8,57.4,415.4,40.8,415.4z"/>
<path fill="#083756" d="M128.2,488.6H91.4c0,0,7-0.2,7-15.6v-54.3c0-13.8-8.2-14.2-8.2-14.2h39.2c26.6,0,43.4,16.8,43.4,41
	C173,467.8,159.7,488.6,128.2,488.6z M125.2,415.8h-8.6v61.1h12.4c17,0,24.9-14.7,24.9-30.3C153.9,428.6,144.8,415.8,125.2,415.8z"
	/>
<path fill="#083756" d="M255.1,418.6v39.9c0,22.6-12.6,32.2-32.9,32.2c-24-0.2-34.5-10.5-34.5-31v-41c0-14-6.8-14.2-6.8-14.2h31.5
	c0,0-6.8,0.2-6.8,13.8v40.6c0,14.2,5.6,19.1,17.5,19.1c12.1,0,16.6-6.5,16.6-19.1v-40.1c0-13.8-7.5-14.2-7.5-14.2h30.1
	C262.5,404.6,255.1,404.6,255.1,418.6z"/>
<g>
	<path fill="#083756" d="M258.8,326.8c0,0,2.1-4,7.9-4.4c6.1-0.5,8.6,3.3,8.6,3.3c-9.8,6.8-3.7,23.8,1.9,35.4h-4.9
		C263.5,350.8,253.2,335.8,258.8,326.8"/>
	<path fill="#083756" d="M306.6,366.9h34.5c0,0-0.7,1.9-0.7,6.3c0,3.7,0.9,5.8,0.9,5.8h-34.7h-34.7c0,0,0.9-2.1,0.9-5.8
		c0-4.2-0.7-6.3-0.7-6.3H306.6z"/>
	<path fill="#083756" d="M312.2,307.2c0,3-2.6,5.6-5.6,5.6c-3,0-5.6-2.6-5.6-5.6s2.6-5.6,5.6-5.6
		C309.6,301.6,312.2,304.1,312.2,307.2"/>
	<path fill="#083756" d="M331.1,317.7c0,0-2.6-4.2-9.1-4.2c-6.5,0-9.3,4.2-9.3,4.2c7.5,12.6,2.6,31.7-1.6,43.4h4.4
		C325.2,348.9,339,328.9,331.1,317.7"/>
	<path fill="#083756" d="M354.1,326.8c0,0-2.1-4-7.9-4.4c-6.1-0.5-8.6,3.3-8.6,3.3c9.8,6.8,3.7,23.8-1.9,35.4h4.9
		C349.7,350.8,360,335.8,354.1,326.8"/>
	<path fill="#083756" d="M282.1,317.7c0,0,2.6-4.2,9.1-4.2c6.5,0,9.3,4.2,9.3,4.2c-7.5,12.6-2.6,31.7,1.6,43.4h-4.4
		C287.7,348.9,274.2,328.9,282.1,317.7"/>
	<path fill="#083756" d="M258.8,326.8c0,0,2.1-4,7.9-4.4c6.1-0.5,8.6,3.3,8.6,3.3c-9.8,6.8-3.7,23.8,1.9,35.4h-4.9
		C263.5,350.8,253.2,335.8,258.8,326.8"/>
	<path fill="#083756" d="M306.6,366.9h34.5c0,0-0.7,1.9-0.7,6.3c0,3.7,0.9,5.8,0.9,5.8h-34.7h-34.7c0,0,0.9-2.1,0.9-5.8
		c0-4.2-0.7-6.3-0.7-6.3H306.6z"/>
	<path fill="#083756" d="M312.2,307.2c0,3-2.6,5.6-5.6,5.6c-3,0-5.6-2.6-5.6-5.6s2.6-5.6,5.6-5.6
		C309.6,301.6,312.2,304.1,312.2,307.2"/>
	<path fill="#083756" d="M331.1,317.7c0,0-2.6-4.2-9.1-4.2c-6.5,0-9.3,4.2-9.3,4.2c7.5,12.6,2.6,31.7-1.6,43.4h4.4
		C325.2,348.9,339,328.9,331.1,317.7"/>
	<path fill="#083756" d="M354.1,326.8c0,0-2.1-4-7.9-4.4c-6.1-0.5-8.6,3.3-8.6,3.3c9.8,6.8,3.7,23.8-1.9,35.4h4.9
		C349.7,350.8,360,335.8,354.1,326.8"/>
	<path fill="#083756" d="M282.1,317.7c0,0,2.6-4.2,9.1-4.2c6.5,0,9.3,4.2,9.3,4.2c-7.5,12.6-2.6,31.7,1.6,43.4h-4.4
		C287.7,348.9,274.2,328.9,282.1,317.7"/>
</g>
</svg>
