<?xml version="1.0" encoding="utf-8"?>
<!-- Generator: Adobe Illustrator 16.2.0, SVG Export Plug-In . SVG Version: 6.00 Build 0)  -->
<!DOCTYPE svg PUBLIC "-//W3C//DTD SVG 1.1//EN" "http://www.w3.org/Graphics/SVG/1.1/DTD/svg11.dtd">
<svg version="1.1" id="Layer_1" xmlns="http://www.w3.org/2000/svg" xmlns:xlink="http://www.w3.org/1999/xlink" x="0px" y="0px"
	 width="612px" height="594px" viewBox="0 119.5 612 594" enable-background="new 0 119.5 612 594" xml:space="preserve">
<g>
	<path fill="#4488F6" d="M211.526,606.932c-14.854,0-28.521-2.971-40.998-8.317c-12.478-5.349-22.579-13.666-30.897-25.549h-2.376
		c1.783,13.666,2.376,26.144,2.376,38.025v94.476h-34.462v-331.55h27.926l4.753,31.491h1.782
		c8.913-12.478,19.014-21.39,30.897-27.332c11.883-5.348,25.549-8.318,40.998-8.318c30.303,0,54.07,10.101,70.112,30.896
		c16.637,20.797,24.955,49.911,24.955,87.344c0,37.435-8.318,66.548-24.955,87.345C265.002,596.831,241.235,606.932,211.526,606.932
		z M206.773,399.565c-23.173,0-40.404,6.534-50.505,19.606s-16.043,33.273-16.043,61.794v7.13c0,32.086,5.348,55.26,16.043,68.926
		s27.926,20.796,51.693,20.796c19.608,0,35.057-7.726,46.346-23.768c11.29-16.043,16.637-38.026,16.637-65.954
		c0-28.52-5.348-50.505-16.637-65.953C243.018,406.695,226.975,399.565,206.773,399.565z"/>
</g>
<g>
	<path fill="#4488F6" d="M493.165,606.932c-33.868,0-60.605-10.101-80.214-30.896c-19.607-20.796-29.114-49.316-29.114-85.563
		c0-36.839,8.913-65.952,27.332-87.938s42.78-32.68,73.083-32.68c28.521,0,51.1,9.507,68.33,28.521
		c16.638,19.014,24.956,43.969,24.956,74.866v21.983H419.487c0.595,26.737,7.725,47.533,20.202,61.199
		c13.07,13.666,30.896,20.797,54.663,20.797c24.361,0,49.316-5.348,73.083-15.448v30.896c-12.478,5.349-23.767,8.912-35.056,11.289
		C521.091,606.338,508.613,606.932,493.165,606.932z M483.658,398.971c-18.419,0-33.273,5.942-43.969,17.825
		c-10.695,11.884-17.231,28.521-19.607,49.911h119.429c0-21.984-4.754-38.621-14.854-50.505
		C515.744,404.913,501.483,398.971,483.658,398.971z"/>
</g>
<g>
	<path fill="#4488F6" d="M357.693,602.771h-34.462V277.759h34.462V602.771z"/>
</g>
<g>
	<path fill="#4488F6" d="M40.404,195.169c0,0,5.942-11.289,21.39-11.883c16.637-1.188,23.173,8.913,23.173,8.913
		c-26.738,18.419-10.101,64.765,5.348,96.85H77.243C52.881,261.122,24.956,220.124,40.404,195.169"/>
	<path fill="#4488F6" d="M171.123,305.091h93.879c0,0-1.783,5.348-1.783,17.231c0,10.101,2.377,16.043,2.377,16.043h-94.474H76.054
		c0,0,2.377-5.942,2.377-16.043c0-11.289-1.783-17.231-1.783-17.231H171.123z"/>
	<path fill="#4488F6" d="M185.977,141.693c0,8.318-7.13,15.448-15.448,15.448c-8.319,0-15.449-7.13-15.449-15.448
		s7.13-15.449,15.449-15.449C178.847,126.245,185.977,133.375,185.977,141.693"/>
	<path fill="#4488F6" d="M237.67,170.808c0,0-7.13-11.289-24.956-11.289c-17.825,0-25.549,11.289-25.549,11.289
		c20.796,34.462,7.13,86.75-4.159,118.241h11.883C221.627,255.775,259.06,201.111,237.67,170.808"/>
	<path fill="#4488F6" d="M300.652,195.169c0,0-5.942-11.289-21.39-11.883c-16.637-1.188-23.173,8.913-23.173,8.913
		c26.738,18.419,10.101,64.765-5.348,96.85h13.072C288.769,261.122,316.695,220.124,300.652,195.169"/>
	<path fill="#4488F6" d="M103.98,170.808c0,0,7.13-11.289,24.956-11.289s25.549,11.289,25.549,11.289
		c-20.796,34.462-7.13,86.75,4.159,118.241h-11.883C118.835,255.775,82.59,201.111,103.98,170.808"/>
	<path fill="#4488F6" d="M40.404,195.169c0,0,5.942-11.289,21.39-11.883c16.637-1.188,23.173,8.913,23.173,8.913
		c-26.738,18.419-10.101,64.765,5.348,96.85H77.243C52.881,261.122,24.956,220.124,40.404,195.169"/>
	<path fill="#4488F6" d="M171.123,305.091h93.879c0,0-1.783,5.348-1.783,17.231c0,10.101,2.377,16.043,2.377,16.043h-94.474H76.054
		c0,0,2.377-5.942,2.377-16.043c0-11.289-1.783-17.231-1.783-17.231H171.123z"/>
	<path fill="#4488F6" d="M185.977,141.693c0,8.318-7.13,15.448-15.448,15.448c-8.319,0-15.449-7.13-15.449-15.448
		s7.13-15.449,15.449-15.449C178.847,126.245,185.977,133.375,185.977,141.693"/>
	<path fill="#4488F6" d="M237.67,170.808c0,0-7.13-11.289-24.956-11.289c-17.825,0-25.549,11.289-25.549,11.289
		c20.796,34.462,7.13,86.75-4.159,118.241h11.883C221.627,255.775,259.06,201.111,237.67,170.808"/>
	<path fill="#4488F6" d="M300.652,195.169c0,0-5.942-11.289-21.39-11.883c-16.637-1.188-23.173,8.913-23.173,8.913
		c26.738,18.419,10.101,64.765-5.348,96.85h13.072C288.769,261.122,316.695,220.124,300.652,195.169"/>
	<path fill="#4488F6" d="M103.98,170.808c0,0,7.13-11.289,24.956-11.289s25.549,11.289,25.549,11.289
		c-20.796,34.462-7.13,86.75,4.159,118.241h-11.883C118.835,255.775,82.59,201.111,103.98,170.808"/>
</g>
</svg>
