<?xml version="1.0" encoding="utf-8"?>
<!-- Generator: Adobe Illustrator 19.1.0, SVG Export Plug-In . SVG Version: 6.00 Build 0)  -->
<svg version="1.1" id="Layer_1" xmlns="http://www.w3.org/2000/svg" xmlns:xlink="http://www.w3.org/1999/xlink" x="0px" y="0px"
	 viewBox="0 0 103 103" style="enable-background:new 0 0 103 103;" xml:space="preserve">
<style type="text/css">
	.st0{fill:#FFFFFF;}
</style>
<rect width="103" height="103"/>
<g>
	<path class="st0" d="M35.6,87c-2.5,0-4.8-0.5-6.9-1.4s-3.8-2.3-5.2-4.3h-0.4c0.3,2.3,0.4,4.4,0.4,6.4v15.9h-5.8V47.8h4.7l0.8,5.3
		h0.3c1.5-2.1,3.2-3.6,5.2-4.6c2-0.9,4.3-1.4,6.9-1.4c5.1,0,9.1,1.7,11.8,5.2c2.8,3.5,4.2,8.4,4.2,14.7c0,6.3-1.4,11.2-4.2,14.7
		C44.6,85.3,40.6,87,35.6,87z M34.8,52.1c-3.9,0-6.8,1.1-8.5,3.3s-2.7,5.6-2.7,10.4V67c0,5.4,0.9,9.3,2.7,11.6
		c1.8,2.3,4.7,3.5,8.7,3.5c3.3,0,5.9-1.3,7.8-4c1.9-2.7,2.8-6.4,2.8-11.1c0-4.8-0.9-8.5-2.8-11.1S38.2,52.1,34.8,52.1z"/>
</g>
<g>
	<path class="st0" d="M83,87c-5.7,0-10.2-1.7-13.5-5.2c-3.3-3.5-4.9-8.3-4.9-14.4c0-6.2,1.5-11.1,4.6-14.8s7.2-5.5,12.3-5.5
		c4.8,0,8.6,1.6,11.5,4.8c2.8,3.2,4.2,7.4,4.2,12.6v3.7H70.6c0.1,4.5,1.3,8,3.4,10.3c2.2,2.3,5.2,3.5,9.2,3.5
		c4.1,0,8.3-0.9,12.3-2.6v5.2c-2.1,0.9-4,1.5-5.9,1.9S85.6,87,83,87z M81.4,52c-3.1,0-5.6,1-7.4,3c-1.8,2-2.9,4.8-3.3,8.4h20.1
		c0-3.7-0.8-6.5-2.5-8.5C86.8,53,84.4,52,81.4,52z"/>
</g>
<g>
	<path class="st0" d="M60.2,86.3h-5.8V31.6h5.8V86.3z"/>
</g>
<g>
	<path class="st0" d="M6.8,17.7c0,0,1-1.9,3.6-2c2.8-0.2,3.9,1.5,3.9,1.5c-4.5,3.1-1.7,10.9,0.9,16.3H13C8.9,28.8,4.2,21.9,6.8,17.7
		"/>
	<path class="st0" d="M28.8,36.2h15.8c0,0-0.3,0.9-0.3,2.9c0,1.7,0.4,2.7,0.4,2.7H28.8H12.8c0,0,0.4-1,0.4-2.7
		c0-1.9-0.3-2.9-0.3-2.9H28.8z"/>
	<path class="st0" d="M31.3,8.7c0,1.4-1.2,2.6-2.6,2.6s-2.6-1.2-2.6-2.6s1.2-2.6,2.6-2.6S31.3,7.3,31.3,8.7"/>
	<path class="st0" d="M40,13.6c0,0-1.2-1.9-4.2-1.9c-3,0-4.3,1.9-4.3,1.9c3.5,5.8,1.2,14.6-0.7,19.9h2C37.3,27.9,43.6,18.7,40,13.6"
		/>
	<path class="st0" d="M50.6,17.7c0,0-1-1.9-3.6-2c-2.8-0.2-3.9,1.5-3.9,1.5c4.5,3.1,1.7,10.9-0.9,16.3h2.2
		C48.6,28.8,53.3,21.9,50.6,17.7"/>
	<path class="st0" d="M17.5,13.6c0,0,1.2-1.9,4.2-1.9s4.3,1.9,4.3,1.9c-3.5,5.8-1.2,14.6,0.7,19.9h-2C20,27.9,13.9,18.7,17.5,13.6"
		/>
	<path class="st0" d="M6.8,17.7c0,0,1-1.9,3.6-2c2.8-0.2,3.9,1.5,3.9,1.5c-4.5,3.1-1.7,10.9,0.9,16.3H13C8.9,28.8,4.2,21.9,6.8,17.7
		"/>
	<path class="st0" d="M28.8,36.2h15.8c0,0-0.3,0.9-0.3,2.9c0,1.7,0.4,2.7,0.4,2.7H28.8H12.8c0,0,0.4-1,0.4-2.7
		c0-1.9-0.3-2.9-0.3-2.9H28.8z"/>
	<path class="st0" d="M31.3,8.7c0,1.4-1.2,2.6-2.6,2.6s-2.6-1.2-2.6-2.6s1.2-2.6,2.6-2.6S31.3,7.3,31.3,8.7"/>
	<path class="st0" d="M40,13.6c0,0-1.2-1.9-4.2-1.9c-3,0-4.3,1.9-4.3,1.9c3.5,5.8,1.2,14.6-0.7,19.9h2C37.3,27.9,43.6,18.7,40,13.6"
		/>
	<path class="st0" d="M50.6,17.7c0,0-1-1.9-3.6-2c-2.8-0.2-3.9,1.5-3.9,1.5c4.5,3.1,1.7,10.9-0.9,16.3h2.2
		C48.6,28.8,53.3,21.9,50.6,17.7"/>
	<path class="st0" d="M17.5,13.6c0,0,1.2-1.9,4.2-1.9s4.3,1.9,4.3,1.9c-3.5,5.8-1.2,14.6,0.7,19.9h-2C20,27.9,13.9,18.7,17.5,13.6"
		/>
</g>
</svg>
