<?xml version="1.0" encoding="utf-8"?>
<!-- Generator: Adobe Illustrator 19.1.0, SVG Export Plug-In . SVG Version: 6.00 Build 0)  -->
<svg version="1.1" xmlns="http://www.w3.org/2000/svg" xmlns:xlink="http://www.w3.org/1999/xlink" x="0px" y="0px"
	 viewBox="215 -160.8 573.8 573.8" style="enable-background:new 215 -160.8 573.8 573.8;" xml:space="preserve">
<style type="text/css">
	.st0{fill:#FFFFFF;stroke:#000000;stroke-miterlimit:10;}
	.st1{fill:#F3EB41;}
	.st2{fill:#FFFFFF;}
	.st3{fill:#FFD2FA;}
	.st4{fill:#F0F0F0;}
</style>
<g id="Layer_3">
	<polygon class="st0" points="289,53.2 247,53.2 233,74.2 233,486.2 254,514.2 561,514.2 580,493.2 580,309.2 580,75.2 555,53.2 
		521,53.2 516,79.6 483.8,95.2 337,91.2 295,83.3 	"/>
</g>
<g id="Layer_4">
	<path class="st0" d="M392,350.2"/>
</g>
<g id="Layer_2">
	<polygon class="st1" points="395.9,346.2 456,413 687,181.2 625,123.5 	"/>
	<polygon class="st2" points="368,436.2 392,350.2 456,413 	"/>
	<polygon class="st3" points="629,115.2 693,177.2 733,131.1 724.9,100.2 692,74.2 669,69.2 	"/>
	<path class="st4" d="M291.2,64.2V26l28.8-9.6h37.6L350-10.8c0,0-2.7-11.6,7.6-10s24.9-16,24.9-16H422l34,14l5,29.6v9.6h36l18,9.6
		l6,27.2l-5,26.4L488.4,93H306L291.2,64.2z"/>
</g>
<g id="Capa_1">
	<g>
		<g>
			<circle cx="405.5" cy="16.4" r="9.6"/>
			<path d="M732.5,94.8l-23-23c-15.3-15.3-38.3-15.3-53.6,0L587,140.7V83.3c0-21-17.2-38.3-38.3-38.3h-19.1
				c0-21-17.2-38.3-38.3-38.3h-19.1c0-32.5-26.8-57.4-57.4-57.4h-19.1c-32.5,0-57.4,24.9-57.4,57.4h-19.1c-21,0-38.3,17.2-38.3,38.3
				H262c-21,0-38.3,17.2-38.3,38.3v401.6c0.1,21.1,17.3,38.3,38.3,38.3h286.9c21,0,38.3-17.2,38.3-38.3V293.7l145.4-145.4
				C747.8,133.1,747.8,110.1,732.5,94.8z M300.3,45.1c0-11.5,7.7-19.1,19.1-19.1h38.2V6.9c0-21,17.2-38.3,38.3-38.3H415
				c21,0,38.3,17.2,38.3,38.3V26h38.3c11.5,0,19.1,7.6,19.1,19.1v19.1c0,11.5-7.6,19.1-19.1,19.1H319.4c-11.5,0-19.1-7.6-19.1-19.1
				V45.1z M568,485c0,11.5-7.6,19.1-19.1,19.1H262c-9.6,0-19.1-7.7-19.1-19.1V83.3c0-11.5,7.7-19.1,19.1-19.1h19.1
				c0,21,17.2,38.3,38.3,38.3h172.1c21,0,38.3-17.2,38.3-38.3h19.1c9.6,0,19.1,7.6,19.1,19.1v76.5L376.8,351.1l-19.1,95.6l95.6-19.1
				L568,312.8V485z M394,362.5l47.8,47.8l-59.3,11.5L394,362.5z M457.1,397l-49.7-49.8l216.1-216.1l49.7,49.7L457.1,397z M719.1,135
				l-32.5,32.5l-49.7-49.7l32.5-32.5c7.6-7.6,19.1-7.6,26.8,0l22.9,22.9C726.8,115.8,726.8,127.3,719.1,135z"/>
		</g>
	</g>
</g>
</svg>
